<svg width="262" height="500" viewBox="0 0 262 500" fill="none" xmlns="http://www.w3.org/2000/svg">
<g clip-path="url(#clip0_2_5)">
<g filter="url(#filter0_d_2_5)">
<path d="M35.7079 0.570673H226.578C244.883 0.570673 259.722 14.8219 259.722 32.4019V468.168C259.722 485.748 244.884 500 226.578 500H35.7079C17.4028 500 2.56311 485.748 2.56311 468.168V32.4019C2.56311 14.8219 17.4028 0.569672 35.7079 0.569672V0.570673Z" fill="black"/>
</g>
<path d="M35.7079 0.570673H226.578C244.883 0.570673 259.722 14.8219 259.722 32.4019V468.168C259.722 485.748 244.884 500 226.578 500H35.7079C17.4028 500 2.56311 485.748 2.56311 468.168V32.4019C2.56311 14.8219 17.4028 0.569672 35.7079 0.569672V0.570673Z" fill="#213648"/>
<path opacity="0.596" fill-rule="evenodd" clip-rule="evenodd" d="M227.314 0H34.8575C25.8707 0.549625 17.5845 4.66231 9.99597 12.338C14.8767 8.06518 23.58 2.34667 35.0881 2.34667H227.084C238.592 2.34667 247.295 8.06518 252.176 12.338C244.587 4.66231 236.3 0.549625 227.314 0Z" fill="url(#paint0_linear_2_5)" fill-opacity="0.65"/>
<path opacity="0.75" fill-rule="evenodd" clip-rule="evenodd" d="M254.513 463.197V35.0229C254.513 23.5338 250.304 19.2869 247.793 16.5598C245.282 13.8337 245.175 12.4422 248.783 14.5015C252.391 16.5598 259.608 22.5577 259.608 35.0229V463.197C259.608 475.662 252.391 481.659 248.783 483.718C245.175 485.777 245.282 484.386 247.793 481.659C250.304 478.932 254.513 474.685 254.513 463.197Z" fill="url(#paint1_linear_2_5)"/>
<path opacity="0.75" fill-rule="evenodd" clip-rule="evenodd" d="M7.65739 463.197V35.0229C7.65739 23.5338 11.8664 19.2869 14.3776 16.5598C16.8888 13.8337 16.9956 12.4422 13.3875 14.5015C9.77934 16.5598 2.56311 22.5577 2.56311 35.0229V463.197C2.56311 475.662 9.77934 481.659 13.3875 483.718C16.9956 485.777 16.8888 484.386 14.3776 481.659C11.8664 478.932 7.65739 474.685 7.65739 463.197Z" fill="url(#paint2_linear_2_5)"/>
<path fill-rule="evenodd" clip-rule="evenodd" d="M1.99619 101.673H2.95935C3.48877 101.673 3.99651 101.884 4.37087 102.259C4.74523 102.635 4.95554 103.144 4.95554 103.675V164.094C4.95554 164.625 4.74523 165.134 4.37087 165.51C3.99651 165.885 3.48877 166.096 2.95935 166.096H1.99619C1.46677 166.096 0.959029 165.885 0.584671 165.51C0.210312 165.134 0 164.625 0 164.094V103.675C0 103.144 0.210312 102.635 0.584671 102.259C0.959029 101.884 1.46677 101.673 1.99619 101.673ZM259.041 154.219H260.004C260.533 154.219 261.041 154.43 261.415 154.806C261.79 155.181 262 155.691 262 156.222V199.221C262 199.752 261.79 200.261 261.415 200.637C261.041 201.012 260.533 201.223 260.004 201.223H259.041C258.511 201.223 258.003 201.012 257.629 200.637C257.255 200.261 257.044 199.752 257.044 199.221V156.222C257.044 155.691 257.255 155.181 257.629 154.806C258.003 154.43 258.511 154.219 259.041 154.219Z" fill="#2E423C"/>
<path d="M108.469 12.4582H34.2047C23.1198 12.4582 15.0452 20.0298 15.0452 29.9191V452.79C15.0452 465.685 27.5234 477.11 41.6345 477.11H220.625C234.217 477.11 247.214 465.597 247.214 452.79V31.0624C247.214 19.2089 238.441 12.5283 228.055 12.4582H152.613C152.326 12.5052 147.144 14.6427 144.954 20.0298C142.763 25.4179 138.357 29.7128 133.531 29.7128H127.927C125.633 29.7128 119.595 27.4803 116.538 20.0298C113.48 12.5793 108.754 12.5052 108.469 12.4582Z" fill="white"/>
<mask id="mask0_2_5" style="mask-type:luminance" maskUnits="userSpaceOnUse" x="15" y="12" width="233" height="466">
<path d="M108.469 12.4582H34.2047C23.1198 12.4582 15.0452 20.0298 15.0452 29.9191V452.79C15.0452 465.685 27.5234 477.11 41.6345 477.11H220.625C234.217 477.11 247.214 465.597 247.214 452.79V31.0624C247.214 19.2089 238.441 12.5283 228.055 12.4582H152.613C152.326 12.5052 147.144 14.6427 144.954 20.0298C142.763 25.4179 138.357 29.7128 133.531 29.7128H127.927C125.633 29.7128 119.595 27.4803 116.538 20.0298C113.48 12.5793 108.754 12.5052 108.469 12.4582Z" fill="white"/>
</mask>
<g mask="url(#mask0_2_5)">
<path fill-rule="evenodd" clip-rule="evenodd" d="M14.9714 12.4582H247.528V477.988H14.9714V12.4582Z" fill="url(#paint3_linear_2_5)"/>
</g>
<mask id="mask1_2_5" style="mask-type:luminance" maskUnits="userSpaceOnUse" x="15" y="12" width="233" height="466">
<path d="M108.469 12.4582H34.2047C23.1198 12.4582 15.0452 20.0298 15.0452 29.9191V452.79C15.0452 465.685 27.5234 477.11 41.6345 477.11H220.625C234.217 477.11 247.214 465.597 247.214 452.79V31.0624C247.214 19.2089 238.441 12.5283 228.055 12.4582H152.613C152.326 12.5052 147.144 14.6427 144.954 20.0298C142.763 25.4179 138.357 29.7128 133.531 29.7128H127.927C125.633 29.7128 119.595 27.4803 116.538 20.0298C113.48 12.5793 108.754 12.5052 108.469 12.4582Z" fill="white"/>
</mask>
<g mask="url(#mask1_2_5)">
<path d="M94.3344 139.123V121.795H90.2064V119.155C91.5291 119.155 92.5957 119.032 93.4064 118.787C94.2277 118.531 94.8411 118.168 95.2464 117.699C95.6517 117.219 95.8917 116.648 95.9664 115.987H99.0704V139.123H94.3344ZM104.326 139.123V136.819V135.635C104.326 134.462 104.545 133.448 104.982 132.595C105.419 131.731 105.995 130.984 106.71 130.355C107.435 129.715 108.225 129.155 109.078 128.675C109.942 128.195 110.806 127.742 111.67 127.315C112.534 126.888 113.323 126.462 114.038 126.035C114.763 125.598 115.345 125.112 115.782 124.579C116.219 124.046 116.438 123.416 116.438 122.691C116.438 121.763 116.113 121.006 115.462 120.419C114.822 119.832 113.942 119.539 112.822 119.539C111.659 119.539 110.673 119.875 109.862 120.547C109.051 121.219 108.55 122.232 108.358 123.587H103.894C103.915 122.115 104.257 120.782 104.918 119.587C105.59 118.382 106.593 117.427 107.926 116.723C109.259 116.019 110.934 115.667 112.95 115.667C114.678 115.667 116.166 115.96 117.414 116.547C118.673 117.134 119.643 117.95 120.326 118.995C121.009 120.04 121.35 121.262 121.35 122.659C121.35 123.822 121.137 124.824 120.71 125.667C120.283 126.51 119.718 127.23 119.014 127.827C118.31 128.424 117.537 128.947 116.694 129.395C115.851 129.843 115.009 130.259 114.166 130.643C113.334 131.027 112.566 131.422 111.862 131.827C111.158 132.222 110.593 132.67 110.166 133.171C109.739 133.672 109.526 134.275 109.526 134.979V135.187H121.318V139.123H104.326ZM124.414 127.987V122.979H129.534V127.987H124.414ZM124.414 139.027V134.035H129.534V139.027H124.414ZM143.378 139.123L143.394 134.003H132.738V130.163L143.282 115.987H147.874V130.083H151.442V134.003H147.874V139.123H143.378ZM137.058 130.083H143.394V121.603L137.058 130.083ZM162.266 139.475C160.826 139.475 159.482 139.198 158.234 138.643C156.986 138.088 155.967 137.31 155.178 136.307C154.388 135.294 153.946 134.11 153.85 132.755H158.298C158.49 133.651 158.916 134.382 159.578 134.947C160.239 135.502 161.071 135.779 162.074 135.779C163.183 135.779 164.154 135.518 164.986 134.995C165.828 134.472 166.458 133.64 166.874 132.499C167.3 131.358 167.45 129.864 167.322 128.019C167.023 128.584 166.607 129.08 166.074 129.507C165.551 129.923 164.938 130.248 164.234 130.483C163.53 130.707 162.746 130.819 161.882 130.819C160.314 130.819 158.922 130.526 157.706 129.939C156.5 129.342 155.551 128.499 154.858 127.411C154.175 126.312 153.834 125.011 153.834 123.507C153.834 121.992 154.196 120.643 154.922 119.459C155.647 118.275 156.66 117.347 157.962 116.675C159.263 116.003 160.788 115.667 162.538 115.667C164.5 115.667 166.191 116.136 167.61 117.075C169.039 118.003 170.132 119.326 170.89 121.043C171.658 122.75 172.042 124.76 172.042 127.075C172.042 129.838 171.647 132.142 170.858 133.987C170.079 135.822 168.959 137.198 167.498 138.115C166.036 139.022 164.292 139.475 162.266 139.475ZM162.682 127.107C163.332 127.107 163.962 126.963 164.57 126.675C165.188 126.376 165.695 126.003 166.09 125.555C166.484 125.107 166.682 124.643 166.682 124.163C166.692 123.128 166.527 122.243 166.186 121.507C165.855 120.76 165.386 120.19 164.778 119.795C164.18 119.4 163.482 119.203 162.682 119.203C161.946 119.203 161.29 119.374 160.714 119.715C160.138 120.056 159.684 120.536 159.354 121.155C159.023 121.774 158.858 122.488 158.858 123.299C158.858 124.504 159.21 125.443 159.914 126.115C160.618 126.776 161.54 127.107 162.682 127.107Z" fill="white"/>
</g>
<g filter="url(#filter1_d_2_5)">
<path d="M234.552 167.19H26.9486C24.1924 167.19 21.9581 169.431 21.9581 172.196V249.284C21.9581 252.048 24.1924 254.289 26.9486 254.289H234.552C237.309 254.289 239.543 252.048 239.543 249.284V172.196C239.543 169.431 237.309 167.19 234.552 167.19Z" fill="black"/>
</g>
<path d="M234.552 167.19H26.9486C24.1924 167.19 21.9581 169.431 21.9581 172.196V249.284C21.9581 252.048 24.1924 254.289 26.9486 254.289H234.552C237.309 254.289 239.543 252.048 239.543 249.284V172.196C239.543 169.431 237.309 167.19 234.552 167.19Z" fill="#FBFCFE"/>
<path d="M38.7377 192.207V184.977H41.3977C41.9243 184.977 42.396 185.069 42.8127 185.252C43.2293 185.432 43.5577 185.699 43.7977 186.052C44.041 186.406 44.1627 186.837 44.1627 187.347C44.1627 187.827 44.056 188.237 43.8427 188.577C43.6293 188.917 43.3293 189.177 42.9427 189.357C42.5593 189.537 42.1077 189.627 41.5877 189.627H40.2077V192.207H38.7377ZM40.1927 188.497H41.5477C41.9143 188.497 42.2143 188.381 42.4477 188.147C42.681 187.911 42.7977 187.619 42.7977 187.272C42.7977 186.912 42.6743 186.627 42.4277 186.417C42.181 186.204 41.881 186.097 41.5277 186.097H40.1927V188.497ZM46.4744 192.307C46.1477 192.307 45.8511 192.246 45.5844 192.122C45.3211 191.999 45.1127 191.821 44.9594 191.587C44.8061 191.351 44.7294 191.064 44.7294 190.727C44.7294 190.161 44.9411 189.731 45.3644 189.437C45.7877 189.141 46.4561 188.987 47.3694 188.977L48.0194 188.967V188.657C48.0194 188.421 47.9494 188.239 47.8094 188.112C47.6727 187.982 47.4577 187.919 47.1644 187.922C46.9544 187.926 46.7527 187.976 46.5594 188.072C46.3694 188.169 46.2377 188.337 46.1644 188.577H44.9494C44.9694 188.204 45.0777 187.897 45.2744 187.657C45.4744 187.414 45.7427 187.234 46.0794 187.117C46.4161 186.997 46.8011 186.937 47.2344 186.937C47.7611 186.937 48.1844 187.004 48.5044 187.137C48.8244 187.267 49.0561 187.456 49.1994 187.702C49.3461 187.946 49.4194 188.236 49.4194 188.572V192.207H48.1994L48.0794 191.317C47.9027 191.691 47.6811 191.949 47.4144 192.092C47.1511 192.236 46.8377 192.307 46.4744 192.307ZM46.9694 191.347C47.0994 191.347 47.2261 191.324 47.3494 191.277C47.4761 191.227 47.5894 191.162 47.6894 191.082C47.7894 190.999 47.8677 190.906 47.9244 190.802C47.9844 190.699 48.0161 190.592 48.0194 190.482V189.717L47.4944 189.727C47.2511 189.731 47.0244 189.761 46.8144 189.817C46.6044 189.871 46.4344 189.959 46.3044 190.082C46.1777 190.206 46.1144 190.372 46.1144 190.582C46.1144 190.822 46.1961 191.011 46.3594 191.147C46.5261 191.281 46.7294 191.347 46.9694 191.347ZM51.2279 193.857C50.8746 193.857 50.6246 193.827 50.4779 193.767C50.3312 193.711 50.2579 193.682 50.2579 193.682V192.752L50.7729 192.772C50.9962 192.786 51.1762 192.774 51.3129 192.737C51.4496 192.704 51.5529 192.659 51.6229 192.602C51.6929 192.546 51.7429 192.486 51.7729 192.422C51.8062 192.362 51.8296 192.314 51.8429 192.277L51.9379 191.992L49.9279 187.037H51.3729L52.6129 190.407L53.8629 187.037H55.2929L53.1979 192.237C53.0179 192.677 52.8262 193.014 52.6229 193.247C52.4229 193.481 52.2062 193.641 51.9729 193.727C51.7429 193.814 51.4946 193.857 51.2279 193.857ZM55.0874 192.207L57.6724 184.977H59.2174L61.8024 192.207H60.3474L59.7574 190.532H57.1524L56.5524 192.207H55.0874ZM57.4824 189.257H59.4024L58.4474 186.382L57.4824 189.257ZM62.8881 192.207V184.977H65.5481C66.0747 184.977 66.5464 185.069 66.9631 185.252C67.3797 185.432 67.7081 185.699 67.9481 186.052C68.1914 186.406 68.3131 186.837 68.3131 187.347C68.3131 187.827 68.2064 188.237 67.9931 188.577C67.7797 188.917 67.4797 189.177 67.0931 189.357C66.7097 189.537 66.2581 189.627 65.7381 189.627H64.3581V192.207H62.8881ZM64.3431 188.497H65.6981C66.0647 188.497 66.3647 188.381 66.5981 188.147C66.8314 187.911 66.9481 187.619 66.9481 187.272C66.9481 186.912 66.8247 186.627 66.5781 186.417C66.3314 186.204 66.0314 186.097 65.6781 186.097H64.3431V188.497ZM69.4115 192.207V184.977H70.8665V192.207H69.4115Z" fill="#BA4270"/>
<path d="M183.288 192.307C183.032 192.307 182.79 192.277 182.563 192.217C182.34 192.157 182.192 192.112 182.118 192.082L182.183 191.197C182.287 191.234 182.405 191.281 182.538 191.337C182.675 191.391 182.843 191.417 183.043 191.417C183.37 191.417 183.593 191.327 183.713 191.147C183.837 190.967 183.898 190.664 183.898 190.237V184.977H184.823V190.502C184.823 190.886 184.78 191.212 184.693 191.482C184.607 191.752 184.452 191.957 184.228 192.097C184.008 192.237 183.695 192.307 183.288 192.307ZM188.255 192.307C187.985 192.304 187.73 192.266 187.49 192.192C187.253 192.116 187.043 192.004 186.86 191.857C186.677 191.711 186.532 191.529 186.425 191.312C186.322 191.092 186.27 190.837 186.27 190.547V187.037H187.195V190.452C187.195 190.789 187.298 191.062 187.505 191.272C187.715 191.482 188.03 191.587 188.45 191.587C188.83 191.587 189.135 191.489 189.365 191.292C189.598 191.092 189.715 190.796 189.715 190.402V187.037H190.635V192.207H189.9L189.805 191.217C189.742 191.477 189.633 191.687 189.48 191.847C189.33 192.007 189.148 192.126 188.935 192.202C188.725 192.276 188.498 192.311 188.255 192.307ZM194.016 192.307C193.656 192.307 193.321 192.252 193.011 192.142C192.704 192.029 192.449 191.854 192.246 191.617C192.042 191.377 191.916 191.072 191.866 190.702H192.706C192.749 190.906 192.832 191.076 192.956 191.212C193.079 191.346 193.231 191.447 193.411 191.517C193.594 191.584 193.794 191.617 194.011 191.617C194.361 191.617 194.642 191.552 194.856 191.422C195.069 191.292 195.176 191.092 195.176 190.822C195.176 190.632 195.119 190.481 195.006 190.367C194.896 190.251 194.722 190.166 194.486 190.112L193.416 189.847C192.999 189.747 192.666 189.591 192.416 189.377C192.169 189.164 192.044 188.866 192.041 188.482C192.041 188.179 192.114 187.912 192.261 187.682C192.407 187.452 192.626 187.271 192.916 187.137C193.209 187.004 193.574 186.937 194.011 186.937C194.574 186.937 195.027 187.064 195.371 187.317C195.714 187.567 195.894 187.936 195.911 188.422H195.091C195.057 188.176 194.947 187.981 194.761 187.837C194.574 187.691 194.321 187.617 194.001 187.617C193.674 187.617 193.406 187.684 193.196 187.817C192.989 187.947 192.886 188.151 192.886 188.427C192.886 188.611 192.959 188.756 193.106 188.862C193.256 188.966 193.472 189.052 193.756 189.122L194.796 189.382C195.032 189.446 195.229 189.529 195.386 189.632C195.542 189.736 195.666 189.851 195.756 189.977C195.846 190.104 195.909 190.237 195.946 190.377C195.986 190.514 196.006 190.646 196.006 190.772C196.006 191.089 195.927 191.362 195.771 191.592C195.614 191.819 195.387 191.996 195.091 192.122C194.794 192.246 194.436 192.307 194.016 192.307ZM199.002 192.232C198.645 192.232 198.369 192.184 198.172 192.087C197.975 191.991 197.837 191.847 197.757 191.657C197.68 191.467 197.642 191.234 197.642 190.957V187.712H196.802V187.037H197.667L197.892 185.532H198.572V187.032H199.737V187.712H198.572V190.927C198.572 191.111 198.59 191.246 198.627 191.332C198.667 191.416 198.732 191.469 198.822 191.492C198.912 191.516 199.039 191.527 199.202 191.527H199.767V192.147C199.704 192.171 199.607 192.191 199.477 192.207C199.35 192.224 199.192 192.232 199.002 192.232ZM203.615 192.207V184.977H204.5L208.32 190.597V184.977H209.245V192.207H208.42L204.54 186.507V192.207H203.615ZM212.966 192.307C212.489 192.307 212.073 192.206 211.716 192.002C211.363 191.796 211.088 191.494 210.891 191.097C210.694 190.701 210.596 190.216 210.596 189.642C210.596 189.102 210.688 188.629 210.871 188.222C211.054 187.816 211.323 187.501 211.676 187.277C212.029 187.051 212.461 186.937 212.971 186.937C213.448 186.937 213.861 187.042 214.211 187.252C214.561 187.459 214.833 187.764 215.026 188.167C215.223 188.571 215.321 189.062 215.321 189.642C215.321 190.169 215.231 190.632 215.051 191.032C214.871 191.432 214.606 191.746 214.256 191.972C213.909 192.196 213.479 192.307 212.966 192.307ZM212.971 191.577C213.278 191.577 213.538 191.499 213.751 191.342C213.964 191.186 214.126 190.961 214.236 190.667C214.349 190.374 214.406 190.026 214.406 189.622C214.406 189.252 214.356 188.921 214.256 188.627C214.159 188.331 214.006 188.096 213.796 187.922C213.586 187.749 213.311 187.662 212.971 187.662C212.658 187.662 212.393 187.741 212.176 187.897C211.959 188.051 211.794 188.274 211.681 188.567C211.571 188.861 211.516 189.212 211.516 189.622C211.516 189.986 211.564 190.316 211.661 190.612C211.761 190.909 211.918 191.144 212.131 191.317C212.348 191.491 212.628 191.577 212.971 191.577ZM217.577 192.207L215.977 187.037H216.837L218.017 191.012H218.097L219.262 187.037H219.962L221.172 191.002H221.257L222.387 187.037H223.257L221.687 192.207H220.777L219.602 188.392L218.477 192.207H217.577Z" fill="#36536B"/>
<path d="M40.4927 207.224V200.844H38.1577V199.994H43.6277V200.844H41.4227V207.224H40.4927ZM44.6302 207.224V199.794H45.5302V202.814C45.6168 202.671 45.7335 202.538 45.8802 202.414C46.0268 202.288 46.2052 202.186 46.4152 202.109C46.6252 202.029 46.8685 201.989 47.1452 201.989C47.4818 201.989 47.7868 202.053 48.0602 202.179C48.3335 202.303 48.5502 202.479 48.7102 202.709C48.8702 202.939 48.9502 203.213 48.9502 203.529V207.224H48.0252V203.714C48.0252 203.404 47.9185 203.166 47.7052 202.999C47.4952 202.829 47.2202 202.744 46.8802 202.744C46.6502 202.744 46.4335 202.783 46.2302 202.859C46.0268 202.933 45.8618 203.046 45.7352 203.199C45.6118 203.349 45.5502 203.541 45.5502 203.774V207.224H44.6302ZM52.5769 207.324C52.0969 207.324 51.6736 207.219 51.3069 207.009C50.9402 206.799 50.6536 206.498 50.4469 206.104C50.2402 205.711 50.1369 205.239 50.1369 204.689C50.1369 204.146 50.2302 203.669 50.4169 203.259C50.6036 202.849 50.8736 202.529 51.2269 202.299C51.5836 202.069 52.0119 201.954 52.5119 201.954C52.9986 201.954 53.4102 202.059 53.7469 202.269C54.0836 202.479 54.3386 202.776 54.5119 203.159C54.6886 203.539 54.7769 203.991 54.7769 204.514V204.854H51.0719C51.0719 205.181 51.1252 205.478 51.2319 205.744C51.3419 206.008 51.5069 206.218 51.7269 206.374C51.9469 206.531 52.2252 206.609 52.5619 206.609C52.8919 206.609 53.1752 206.533 53.4119 206.379C53.6519 206.226 53.8052 206.004 53.8719 205.714H54.7419C54.6819 206.064 54.5419 206.359 54.3219 206.599C54.1052 206.839 53.8436 207.021 53.5369 207.144C53.2336 207.264 52.9136 207.324 52.5769 207.324ZM51.0769 204.229H53.8869C53.8869 203.933 53.8369 203.666 53.7369 203.429C53.6369 203.189 53.4836 203.001 53.2769 202.864C53.0736 202.724 52.8169 202.654 52.5069 202.654C52.1836 202.654 51.9152 202.733 51.7019 202.889C51.4886 203.043 51.3302 203.241 51.2269 203.484C51.1236 203.724 51.0736 203.973 51.0769 204.229ZM58.429 208.834V202.054H59.349L59.359 202.954C59.419 202.848 59.4957 202.736 59.589 202.619C59.6857 202.503 59.8023 202.394 59.939 202.294C60.079 202.194 60.2407 202.113 60.424 202.049C60.6107 201.986 60.8223 201.954 61.059 201.954C61.4723 201.954 61.8357 202.049 62.149 202.239C62.4657 202.426 62.7123 202.713 62.889 203.099C63.0657 203.486 63.154 203.976 63.154 204.569C63.154 205.163 63.0673 205.664 62.894 206.074C62.724 206.481 62.4773 206.791 62.154 207.004C61.8307 207.218 61.4407 207.324 60.984 207.324C60.754 207.324 60.549 207.291 60.369 207.224C60.1923 207.161 60.0373 207.078 59.904 206.974C59.774 206.868 59.664 206.754 59.574 206.634C59.4873 206.514 59.4157 206.399 59.359 206.289V208.834H58.429ZM60.809 206.604C61.2357 206.604 61.584 206.443 61.854 206.119C62.124 205.793 62.259 205.286 62.259 204.599C62.259 204.009 62.1357 203.541 61.889 203.194C61.6423 202.848 61.2823 202.674 60.809 202.674C60.329 202.674 59.9657 202.853 59.719 203.209C59.4723 203.563 59.349 204.026 59.349 204.599C59.349 204.969 59.404 205.306 59.514 205.609C59.624 205.913 59.7873 206.154 60.004 206.334C60.2207 206.514 60.489 206.604 60.809 206.604ZM65.7774 207.324C65.4408 207.324 65.1441 207.266 64.8874 207.149C64.6341 207.029 64.4341 206.858 64.2874 206.634C64.1441 206.411 64.0724 206.141 64.0724 205.824C64.0724 205.251 64.2724 204.824 64.6724 204.544C65.0724 204.264 65.7141 204.114 66.5974 204.094L67.5174 204.069V203.664C67.5174 203.348 67.4224 203.098 67.2324 202.914C67.0424 202.728 66.7491 202.634 66.3524 202.634C66.0558 202.638 65.7941 202.708 65.5674 202.844C65.3408 202.981 65.1958 203.204 65.1324 203.514H64.3174C64.3374 203.178 64.4308 202.894 64.5974 202.664C64.7674 202.431 65.0058 202.254 65.3124 202.134C65.6191 202.014 65.9808 201.954 66.3974 201.954C66.8474 201.954 67.2208 202.018 67.5174 202.144C67.8174 202.271 68.0408 202.458 68.1874 202.704C68.3374 202.951 68.4124 203.254 68.4124 203.614V207.224H67.6224L67.5524 206.254C67.3558 206.658 67.1024 206.938 66.7924 207.094C66.4858 207.248 66.1474 207.324 65.7774 207.324ZM66.0524 206.659C66.2291 206.659 66.4024 206.628 66.5724 206.564C66.7458 206.501 66.9024 206.416 67.0424 206.309C67.1858 206.199 67.3008 206.078 67.3874 205.944C67.4741 205.808 67.5174 205.668 67.5174 205.524V204.639L66.7524 204.654C66.3558 204.661 66.0258 204.701 65.7624 204.774C65.4991 204.848 65.3008 204.963 65.1674 205.119C65.0341 205.276 64.9674 205.481 64.9674 205.734C64.9674 206.024 65.0691 206.251 65.2724 206.414C65.4758 206.578 65.7358 206.659 66.0524 206.659ZM70.2038 208.874C69.9004 208.874 69.6921 208.853 69.5788 208.809C69.4654 208.766 69.4088 208.744 69.4088 208.744V208.144L69.9388 208.154C70.1288 208.161 70.2871 208.148 70.4138 208.114C70.5404 208.081 70.6421 208.036 70.7188 207.979C70.7954 207.923 70.8538 207.859 70.8938 207.789C70.9371 207.719 70.9721 207.653 70.9988 207.589L71.1788 207.099L69.1588 202.054H70.0938L71.6188 206.044L73.1338 202.054H74.0388L71.8638 207.614C71.7271 207.941 71.5754 208.196 71.4088 208.379C71.2454 208.563 71.0621 208.691 70.8588 208.764C70.6588 208.838 70.4404 208.874 70.2038 208.874ZM75.0403 207.224V202.054H75.9303V202.804C76.0737 202.578 76.2703 202.379 76.5203 202.209C76.7703 202.039 77.0953 201.954 77.4953 201.954C77.682 201.954 77.872 201.986 78.0653 202.049C78.262 202.113 78.442 202.208 78.6053 202.334C78.7687 202.461 78.8953 202.616 78.9853 202.799C79.1453 202.546 79.362 202.343 79.6353 202.189C79.9087 202.033 80.217 201.954 80.5603 201.954C80.7403 201.954 80.9287 201.983 81.1253 202.039C81.322 202.093 81.5037 202.189 81.6703 202.329C81.8403 202.466 81.9787 202.658 82.0853 202.904C82.192 203.148 82.2453 203.461 82.2453 203.844V207.224H81.3153V203.934C81.3153 203.621 81.2653 203.379 81.1653 203.209C81.0653 203.036 80.9337 202.914 80.7703 202.844C80.6103 202.774 80.4387 202.739 80.2553 202.739C80.0953 202.739 79.9253 202.771 79.7453 202.834C79.5653 202.898 79.412 203.004 79.2853 203.154C79.1587 203.304 79.0953 203.509 79.0953 203.769V207.224H78.1753V203.664C78.1753 203.461 78.1203 203.291 78.0103 203.154C77.9037 203.018 77.7687 202.914 77.6053 202.844C77.4453 202.774 77.2853 202.739 77.1253 202.739C76.9487 202.739 76.7703 202.774 76.5903 202.844C76.4137 202.914 76.2637 203.026 76.1403 203.179C76.0203 203.329 75.9603 203.526 75.9603 203.769V207.224H75.0403ZM85.8777 207.324C85.3977 207.324 84.9743 207.219 84.6077 207.009C84.241 206.799 83.9543 206.498 83.7477 206.104C83.541 205.711 83.4377 205.239 83.4377 204.689C83.4377 204.146 83.531 203.669 83.7177 203.259C83.9043 202.849 84.1743 202.529 84.5277 202.299C84.8843 202.069 85.3127 201.954 85.8127 201.954C86.2993 201.954 86.711 202.059 87.0477 202.269C87.3843 202.479 87.6393 202.776 87.8127 203.159C87.9893 203.539 88.0777 203.991 88.0777 204.514V204.854H84.3727C84.3727 205.181 84.426 205.478 84.5327 205.744C84.6427 206.008 84.8077 206.218 85.0277 206.374C85.2477 206.531 85.526 206.609 85.8627 206.609C86.1927 206.609 86.476 206.533 86.7127 206.379C86.9527 206.226 87.106 206.004 87.1727 205.714H88.0427C87.9827 206.064 87.8427 206.359 87.6227 206.599C87.406 206.839 87.1443 207.021 86.8377 207.144C86.5343 207.264 86.2143 207.324 85.8777 207.324ZM84.3777 204.229H87.1877C87.1877 203.933 87.1377 203.666 87.0377 203.429C86.9377 203.189 86.7843 203.001 86.5777 202.864C86.3743 202.724 86.1177 202.654 85.8077 202.654C85.4843 202.654 85.216 202.733 85.0027 202.889C84.7893 203.043 84.631 203.241 84.5277 203.484C84.4243 203.724 84.3743 203.973 84.3777 204.229ZM89.3567 207.224V202.054H90.2517V202.804C90.3351 202.661 90.4501 202.526 90.5967 202.399C90.7467 202.273 90.9267 202.171 91.1367 202.094C91.3501 202.018 91.5951 201.979 91.8717 201.979C92.1984 201.979 92.4984 202.044 92.7717 202.174C93.0484 202.304 93.2684 202.508 93.4317 202.784C93.5984 203.058 93.6817 203.411 93.6817 203.844V207.224H92.7567V203.934C92.7567 203.531 92.6501 203.233 92.4367 203.039C92.2267 202.843 91.9534 202.744 91.6167 202.744C91.3834 202.744 91.1651 202.783 90.9617 202.859C90.7584 202.933 90.5934 203.046 90.4667 203.199C90.3401 203.349 90.2767 203.539 90.2767 203.769V207.224H89.3567ZM96.8084 207.249C96.4517 207.249 96.175 207.201 95.9784 207.104C95.7817 207.008 95.6434 206.864 95.5634 206.674C95.4867 206.484 95.4484 206.251 95.4484 205.974V202.729H94.6084V202.054H95.4734L95.6984 200.549H96.3784V202.049H97.5434V202.729H96.3784V205.944C96.3784 206.128 96.3967 206.263 96.4334 206.349C96.4734 206.433 96.5384 206.486 96.6284 206.509C96.7184 206.533 96.845 206.544 97.0084 206.544H97.5734V207.164C97.51 207.188 97.4134 207.208 97.2834 207.224C97.1567 207.241 96.9984 207.249 96.8084 207.249ZM101.232 207.224V199.794H102.132V202.814C102.218 202.671 102.335 202.538 102.482 202.414C102.628 202.288 102.807 202.186 103.017 202.109C103.227 202.029 103.47 201.989 103.747 201.989C104.083 201.989 104.388 202.053 104.662 202.179C104.935 202.303 105.152 202.479 105.312 202.709C105.472 202.939 105.552 203.213 105.552 203.529V207.224H104.627V203.714C104.627 203.404 104.52 203.166 104.307 202.999C104.097 202.829 103.822 202.744 103.482 202.744C103.252 202.744 103.035 202.783 102.832 202.859C102.628 202.933 102.463 203.046 102.337 203.199C102.213 203.349 102.152 203.541 102.152 203.774V207.224H101.232ZM108.424 207.324C108.087 207.324 107.791 207.266 107.534 207.149C107.281 207.029 107.081 206.858 106.934 206.634C106.791 206.411 106.719 206.141 106.719 205.824C106.719 205.251 106.919 204.824 107.319 204.544C107.719 204.264 108.361 204.114 109.244 204.094L110.164 204.069V203.664C110.164 203.348 110.069 203.098 109.879 202.914C109.689 202.728 109.396 202.634 108.999 202.634C108.702 202.638 108.441 202.708 108.214 202.844C107.987 202.981 107.842 203.204 107.779 203.514H106.964C106.984 203.178 107.077 202.894 107.244 202.664C107.414 202.431 107.652 202.254 107.959 202.134C108.266 202.014 108.627 201.954 109.044 201.954C109.494 201.954 109.867 202.018 110.164 202.144C110.464 202.271 110.687 202.458 110.834 202.704C110.984 202.951 111.059 203.254 111.059 203.614V207.224H110.269L110.199 206.254C110.002 206.658 109.749 206.938 109.439 207.094C109.132 207.248 108.794 207.324 108.424 207.324ZM108.699 206.659C108.876 206.659 109.049 206.628 109.219 206.564C109.392 206.501 109.549 206.416 109.689 206.309C109.832 206.199 109.947 206.078 110.034 205.944C110.121 205.808 110.164 205.668 110.164 205.524V204.639L109.399 204.654C109.002 204.661 108.672 204.701 108.409 204.774C108.146 204.848 107.947 204.963 107.814 205.119C107.681 205.276 107.614 205.481 107.614 205.734C107.614 206.024 107.716 206.251 107.919 206.414C108.122 206.578 108.382 206.659 108.699 206.659ZM114.312 207.324C113.952 207.324 113.617 207.269 113.307 207.159C113.001 207.046 112.746 206.871 112.542 206.634C112.339 206.394 112.212 206.089 112.162 205.719H113.002C113.046 205.923 113.129 206.093 113.252 206.229C113.376 206.363 113.527 206.464 113.707 206.534C113.891 206.601 114.091 206.634 114.307 206.634C114.657 206.634 114.939 206.569 115.152 206.439C115.366 206.309 115.472 206.109 115.472 205.839C115.472 205.649 115.416 205.498 115.302 205.384C115.192 205.268 115.019 205.183 114.782 205.129L113.712 204.864C113.296 204.764 112.962 204.608 112.712 204.394C112.466 204.181 112.341 203.883 112.337 203.499C112.337 203.196 112.411 202.929 112.557 202.699C112.704 202.469 112.922 202.288 113.212 202.154C113.506 202.021 113.871 201.954 114.307 201.954C114.871 201.954 115.324 202.081 115.667 202.334C116.011 202.584 116.191 202.953 116.207 203.439H115.387C115.354 203.193 115.244 202.998 115.057 202.854C114.871 202.708 114.617 202.634 114.297 202.634C113.971 202.634 113.702 202.701 113.492 202.834C113.286 202.964 113.182 203.168 113.182 203.444C113.182 203.628 113.256 203.773 113.402 203.879C113.552 203.983 113.769 204.069 114.052 204.139L115.092 204.399C115.329 204.463 115.526 204.546 115.682 204.649C115.839 204.753 115.962 204.868 116.052 204.994C116.142 205.121 116.206 205.254 116.242 205.394C116.282 205.531 116.302 205.663 116.302 205.789C116.302 206.106 116.224 206.379 116.067 206.609C115.911 206.836 115.684 207.013 115.387 207.139C115.091 207.263 114.732 207.324 114.312 207.324ZM122.459 207.324C122.155 207.324 121.899 207.284 121.689 207.204C121.482 207.124 121.312 207.023 121.179 206.899C121.045 206.773 120.942 206.644 120.869 206.514C120.795 206.381 120.742 206.264 120.709 206.164L120.609 207.224H119.904V199.794H120.834V202.874C120.877 202.788 120.942 202.693 121.029 202.589C121.119 202.486 121.234 202.386 121.374 202.289C121.514 202.193 121.679 202.113 121.869 202.049C122.062 201.986 122.282 201.954 122.529 201.954C123.175 201.954 123.689 202.179 124.069 202.629C124.452 203.079 124.644 203.743 124.644 204.619C124.644 205.163 124.562 205.638 124.399 206.044C124.235 206.448 123.992 206.763 123.669 206.989C123.345 207.213 122.942 207.324 122.459 207.324ZM122.294 206.614C122.714 206.614 123.055 206.453 123.319 206.129C123.582 205.803 123.714 205.284 123.714 204.574C123.714 203.971 123.59 203.504 123.344 203.174C123.1 202.841 122.744 202.674 122.274 202.674C121.93 202.674 121.654 202.749 121.444 202.899C121.237 203.046 121.084 203.261 120.984 203.544C120.887 203.828 120.837 204.171 120.834 204.574C120.834 205.298 120.945 205.819 121.169 206.139C121.395 206.456 121.77 206.614 122.294 206.614ZM128.055 207.324C127.575 207.324 127.152 207.219 126.785 207.009C126.419 206.799 126.132 206.498 125.925 206.104C125.719 205.711 125.615 205.239 125.615 204.689C125.615 204.146 125.709 203.669 125.895 203.259C126.082 202.849 126.352 202.529 126.705 202.299C127.062 202.069 127.49 201.954 127.99 201.954C128.477 201.954 128.889 202.059 129.225 202.269C129.562 202.479 129.817 202.776 129.99 203.159C130.167 203.539 130.255 203.991 130.255 204.514V204.854H126.55C126.55 205.181 126.604 205.478 126.71 205.744C126.82 206.008 126.985 206.218 127.205 206.374C127.425 206.531 127.704 206.609 128.04 206.609C128.37 206.609 128.654 206.533 128.89 206.379C129.13 206.226 129.284 206.004 129.35 205.714H130.22C130.16 206.064 130.02 206.359 129.8 206.599C129.584 206.839 129.322 207.021 129.015 207.144C128.712 207.264 128.392 207.324 128.055 207.324ZM126.555 204.229H129.365C129.365 203.933 129.315 203.666 129.215 203.429C129.115 203.189 128.962 203.001 128.755 202.864C128.552 202.724 128.295 202.654 127.985 202.654C127.662 202.654 127.394 202.733 127.18 202.889C126.967 203.043 126.809 203.241 126.705 203.484C126.602 203.724 126.552 203.973 126.555 204.229ZM133.719 207.324C133.239 207.324 132.816 207.219 132.449 207.009C132.083 206.799 131.796 206.498 131.589 206.104C131.383 205.711 131.279 205.239 131.279 204.689C131.279 204.146 131.373 203.669 131.559 203.259C131.746 202.849 132.016 202.529 132.369 202.299C132.726 202.069 133.154 201.954 133.654 201.954C134.141 201.954 134.553 202.059 134.889 202.269C135.226 202.479 135.481 202.776 135.654 203.159C135.831 203.539 135.919 203.991 135.919 204.514V204.854H132.214C132.214 205.181 132.268 205.478 132.374 205.744C132.484 206.008 132.649 206.218 132.869 206.374C133.089 206.531 133.368 206.609 133.704 206.609C134.034 206.609 134.318 206.533 134.554 206.379C134.794 206.226 134.948 206.004 135.014 205.714H135.884C135.824 206.064 135.684 206.359 135.464 206.599C135.248 206.839 134.986 207.021 134.679 207.144C134.376 207.264 134.056 207.324 133.719 207.324ZM132.219 204.229H135.029C135.029 203.933 134.979 203.666 134.879 203.429C134.779 203.189 134.626 203.001 134.419 202.864C134.216 202.724 133.959 202.654 133.649 202.654C133.326 202.654 133.058 202.733 132.844 202.889C132.631 203.043 132.473 203.241 132.369 203.484C132.266 203.724 132.216 203.973 132.219 204.229ZM137.199 207.224V202.054H138.094V202.804C138.177 202.661 138.292 202.526 138.439 202.399C138.589 202.273 138.769 202.171 138.979 202.094C139.192 202.018 139.437 201.979 139.714 201.979C140.04 201.979 140.34 202.044 140.614 202.174C140.89 202.304 141.11 202.508 141.274 202.784C141.44 203.058 141.524 203.411 141.524 203.844V207.224H140.599V203.934C140.599 203.531 140.492 203.233 140.279 203.039C140.069 202.843 139.795 202.744 139.459 202.744C139.225 202.744 139.007 202.783 138.804 202.859C138.6 202.933 138.435 203.046 138.309 203.199C138.182 203.349 138.119 203.539 138.119 203.769V207.224H137.199ZM145.402 208.834V202.054H146.322L146.332 202.954C146.392 202.848 146.468 202.736 146.562 202.619C146.658 202.503 146.775 202.394 146.912 202.294C147.052 202.194 147.213 202.113 147.397 202.049C147.583 201.986 147.795 201.954 148.032 201.954C148.445 201.954 148.808 202.049 149.122 202.239C149.438 202.426 149.685 202.713 149.862 203.099C150.038 203.486 150.127 203.976 150.127 204.569C150.127 205.163 150.04 205.664 149.867 206.074C149.697 206.481 149.45 206.791 149.127 207.004C148.803 207.218 148.413 207.324 147.957 207.324C147.727 207.324 147.522 207.291 147.342 207.224C147.165 207.161 147.01 207.078 146.877 206.974C146.747 206.868 146.637 206.754 146.547 206.634C146.46 206.514 146.388 206.399 146.332 206.289V208.834H145.402ZM147.782 206.604C148.208 206.604 148.557 206.443 148.827 206.119C149.097 205.793 149.232 205.286 149.232 204.599C149.232 204.009 149.108 203.541 148.862 203.194C148.615 202.848 148.255 202.674 147.782 202.674C147.302 202.674 146.938 202.853 146.692 203.209C146.445 203.563 146.322 204.026 146.322 204.599C146.322 204.969 146.377 205.306 146.487 205.609C146.597 205.913 146.76 206.154 146.977 206.334C147.193 206.514 147.462 206.604 147.782 206.604ZM151.359 207.224V202.054H152.239V203.049C152.325 202.803 152.447 202.599 152.604 202.439C152.76 202.276 152.939 202.154 153.139 202.074C153.342 201.994 153.552 201.954 153.769 201.954C153.845 201.954 153.92 201.959 153.994 201.969C154.067 201.979 154.124 201.996 154.164 202.019V202.914C154.114 202.891 154.049 202.876 153.969 202.869C153.892 202.859 153.827 202.854 153.774 202.854C153.567 202.841 153.374 202.854 153.194 202.894C153.014 202.931 152.855 202.996 152.719 203.089C152.582 203.183 152.474 203.306 152.394 203.459C152.317 203.609 152.279 203.793 152.279 204.009V207.224H151.359ZM157.257 207.324C156.78 207.324 156.363 207.223 156.007 207.019C155.653 206.813 155.378 206.511 155.182 206.114C154.985 205.718 154.887 205.233 154.887 204.659C154.887 204.119 154.978 203.646 155.162 203.239C155.345 202.833 155.613 202.518 155.967 202.294C156.32 202.068 156.752 201.954 157.262 201.954C157.738 201.954 158.152 202.059 158.502 202.269C158.852 202.476 159.123 202.781 159.317 203.184C159.513 203.588 159.612 204.079 159.612 204.659C159.612 205.186 159.522 205.649 159.342 206.049C159.162 206.449 158.897 206.763 158.547 206.989C158.2 207.213 157.77 207.324 157.257 207.324ZM157.262 206.594C157.568 206.594 157.828 206.516 158.042 206.359C158.255 206.203 158.417 205.978 158.527 205.684C158.64 205.391 158.697 205.043 158.697 204.639C158.697 204.269 158.647 203.938 158.547 203.644C158.45 203.348 158.297 203.113 158.087 202.939C157.877 202.766 157.602 202.679 157.262 202.679C156.948 202.679 156.683 202.758 156.467 202.914C156.25 203.068 156.085 203.291 155.972 203.584C155.862 203.878 155.807 204.229 155.807 204.639C155.807 205.003 155.855 205.333 155.952 205.629C156.052 205.926 156.208 206.161 156.422 206.334C156.638 206.508 156.918 206.594 157.262 206.594ZM162.921 207.324C162.454 207.324 162.041 207.223 161.681 207.019C161.324 206.816 161.044 206.516 160.841 206.119C160.641 205.723 160.541 205.236 160.541 204.659C160.541 204.119 160.633 203.648 160.816 203.244C161.003 202.838 161.273 202.521 161.626 202.294C161.983 202.068 162.414 201.954 162.921 201.954C163.291 201.954 163.623 202.026 163.916 202.169C164.213 202.309 164.456 202.509 164.646 202.769C164.836 203.029 164.953 203.336 164.996 203.689H164.176C164.146 203.509 164.076 203.344 163.966 203.194C163.859 203.044 163.718 202.924 163.541 202.834C163.368 202.744 163.163 202.699 162.926 202.699C162.483 202.699 162.121 202.859 161.841 203.179C161.564 203.499 161.426 203.989 161.426 204.649C161.426 205.246 161.553 205.724 161.806 206.084C162.063 206.441 162.439 206.619 162.936 206.619C163.173 206.619 163.379 206.574 163.556 206.484C163.733 206.391 163.874 206.269 163.981 206.119C164.088 205.966 164.156 205.803 164.186 205.629H164.991C164.948 205.976 164.829 206.276 164.636 206.529C164.446 206.783 164.203 206.979 163.906 207.119C163.613 207.256 163.284 207.324 162.921 207.324ZM168.436 207.324C167.956 207.324 167.533 207.219 167.166 207.009C166.8 206.799 166.513 206.498 166.306 206.104C166.1 205.711 165.996 205.239 165.996 204.689C165.996 204.146 166.09 203.669 166.276 203.259C166.463 202.849 166.733 202.529 167.086 202.299C167.443 202.069 167.871 201.954 168.371 201.954C168.858 201.954 169.27 202.059 169.606 202.269C169.943 202.479 170.198 202.776 170.371 203.159C170.548 203.539 170.636 203.991 170.636 204.514V204.854H166.931C166.931 205.181 166.985 205.478 167.091 205.744C167.201 206.008 167.366 206.218 167.586 206.374C167.806 206.531 168.085 206.609 168.421 206.609C168.751 206.609 169.035 206.533 169.271 206.379C169.511 206.226 169.665 206.004 169.731 205.714H170.601C170.541 206.064 170.401 206.359 170.181 206.599C169.965 206.839 169.703 207.021 169.396 207.144C169.093 207.264 168.773 207.324 168.436 207.324ZM166.936 204.229H169.746C169.746 203.933 169.696 203.666 169.596 203.429C169.496 203.189 169.343 203.001 169.136 202.864C168.933 202.724 168.676 202.654 168.366 202.654C168.043 202.654 167.775 202.733 167.561 202.889C167.348 203.043 167.19 203.241 167.086 203.484C166.983 203.724 166.933 203.973 166.936 204.229ZM173.746 207.324C173.386 207.324 173.051 207.269 172.741 207.159C172.434 207.046 172.179 206.871 171.976 206.634C171.773 206.394 171.646 206.089 171.596 205.719H172.436C172.479 205.923 172.563 206.093 172.686 206.229C172.809 206.363 172.961 206.464 173.141 206.534C173.324 206.601 173.524 206.634 173.741 206.634C174.091 206.634 174.373 206.569 174.586 206.439C174.799 206.309 174.906 206.109 174.906 205.839C174.906 205.649 174.849 205.498 174.736 205.384C174.626 205.268 174.453 205.183 174.216 205.129L173.146 204.864C172.729 204.764 172.396 204.608 172.146 204.394C171.899 204.181 171.774 203.883 171.771 203.499C171.771 203.196 171.844 202.929 171.991 202.699C172.138 202.469 172.356 202.288 172.646 202.154C172.939 202.021 173.304 201.954 173.741 201.954C174.304 201.954 174.758 202.081 175.101 202.334C175.444 202.584 175.624 202.953 175.641 203.439H174.821C174.788 203.193 174.678 202.998 174.491 202.854C174.304 202.708 174.051 202.634 173.731 202.634C173.404 202.634 173.136 202.701 172.926 202.834C172.719 202.964 172.616 203.168 172.616 203.444C172.616 203.628 172.689 203.773 172.836 203.879C172.986 203.983 173.203 204.069 173.486 204.139L174.526 204.399C174.763 204.463 174.959 204.546 175.116 204.649C175.273 204.753 175.396 204.868 175.486 204.994C175.576 205.121 175.639 205.254 175.676 205.394C175.716 205.531 175.736 205.663 175.736 205.789C175.736 206.106 175.658 206.379 175.501 206.609C175.344 206.836 175.118 207.013 174.821 207.139C174.524 207.263 174.166 207.324 173.746 207.324ZM178.785 207.324C178.425 207.324 178.09 207.269 177.78 207.159C177.473 207.046 177.218 206.871 177.015 206.634C176.812 206.394 176.685 206.089 176.635 205.719H177.475C177.518 205.923 177.602 206.093 177.725 206.229C177.848 206.363 178 206.464 178.18 206.534C178.363 206.601 178.563 206.634 178.78 206.634C179.13 206.634 179.412 206.569 179.625 206.439C179.838 206.309 179.945 206.109 179.945 205.839C179.945 205.649 179.888 205.498 179.775 205.384C179.665 205.268 179.492 205.183 179.255 205.129L178.185 204.864C177.768 204.764 177.435 204.608 177.185 204.394C176.938 204.181 176.813 203.883 176.81 203.499C176.81 203.196 176.883 202.929 177.03 202.699C177.177 202.469 177.395 202.288 177.685 202.154C177.978 202.021 178.343 201.954 178.78 201.954C179.343 201.954 179.797 202.081 180.14 202.334C180.483 202.584 180.663 202.953 180.68 203.439H179.86C179.827 203.193 179.717 202.998 179.53 202.854C179.343 202.708 179.09 202.634 178.77 202.634C178.443 202.634 178.175 202.701 177.965 202.834C177.758 202.964 177.655 203.168 177.655 203.444C177.655 203.628 177.728 203.773 177.875 203.879C178.025 203.983 178.242 204.069 178.525 204.139L179.565 204.399C179.802 204.463 179.998 204.546 180.155 204.649C180.312 204.753 180.435 204.868 180.525 204.994C180.615 205.121 180.678 205.254 180.715 205.394C180.755 205.531 180.775 205.663 180.775 205.789C180.775 206.106 180.697 206.379 180.54 206.609C180.383 206.836 180.157 207.013 179.86 207.139C179.563 207.263 179.205 207.324 178.785 207.324ZM184.169 207.324C183.689 207.324 183.265 207.219 182.899 207.009C182.532 206.799 182.245 206.498 182.039 206.104C181.832 205.711 181.729 205.239 181.729 204.689C181.729 204.146 181.822 203.669 182.009 203.259C182.195 202.849 182.465 202.529 182.819 202.299C183.175 202.069 183.604 201.954 184.104 201.954C184.59 201.954 185.002 202.059 185.339 202.269C185.675 202.479 185.93 202.776 186.104 203.159C186.28 203.539 186.369 203.991 186.369 204.514V204.854H182.664C182.664 205.181 182.717 205.478 182.824 205.744C182.934 206.008 183.099 206.218 183.319 206.374C183.539 206.531 183.817 206.609 184.154 206.609C184.484 206.609 184.767 206.533 185.004 206.379C185.244 206.226 185.397 206.004 185.464 205.714H186.334C186.274 206.064 186.134 206.359 185.914 206.599C185.697 206.839 185.435 207.021 185.129 207.144C184.825 207.264 184.505 207.324 184.169 207.324ZM182.669 204.229H185.479C185.479 203.933 185.429 203.666 185.329 203.429C185.229 203.189 185.075 203.001 184.869 202.864C184.665 202.724 184.409 202.654 184.099 202.654C183.775 202.654 183.507 202.733 183.294 202.889C183.08 203.043 182.922 203.241 182.819 203.484C182.715 203.724 182.665 203.973 182.669 204.229ZM189.533 207.324C188.859 207.324 188.326 207.094 187.933 206.634C187.543 206.174 187.348 205.503 187.348 204.619C187.348 204.083 187.426 203.614 187.583 203.214C187.739 202.814 187.974 202.504 188.288 202.284C188.601 202.064 188.991 201.954 189.458 201.954C189.708 201.954 189.928 201.986 190.118 202.049C190.308 202.113 190.473 202.193 190.613 202.289C190.753 202.386 190.866 202.486 190.953 202.589C191.043 202.693 191.109 202.788 191.153 202.874V199.794H192.088V207.224H191.378L191.278 206.164C191.244 206.264 191.191 206.381 191.118 206.514C191.044 206.644 190.941 206.773 190.808 206.899C190.678 207.023 190.508 207.124 190.298 207.204C190.088 207.284 189.833 207.324 189.533 207.324ZM189.698 206.614C190.218 206.614 190.589 206.456 190.813 206.139C191.039 205.819 191.153 205.298 191.153 204.574C191.149 204.171 191.099 203.828 191.003 203.544C190.906 203.261 190.753 203.046 190.543 202.899C190.336 202.749 190.059 202.674 189.713 202.674C189.289 202.674 188.944 202.826 188.678 203.129C188.411 203.433 188.278 203.914 188.278 204.574C188.278 205.221 188.398 205.723 188.638 206.079C188.878 206.436 189.231 206.614 189.698 206.614ZM193.4 207.224V206.044H194.5V207.224H193.4ZM40.4927 219.224V212.844H38.1577V211.994H43.6277V212.844H41.4227V219.224H40.4927ZM44.6302 219.224V211.794H45.5302V214.814C45.6168 214.671 45.7335 214.538 45.8802 214.414C46.0268 214.288 46.2052 214.186 46.4152 214.109C46.6252 214.029 46.8685 213.989 47.1452 213.989C47.4818 213.989 47.7868 214.053 48.0602 214.179C48.3335 214.303 48.5502 214.479 48.7102 214.709C48.8702 214.939 48.9502 215.213 48.9502 215.529V219.224H48.0252V215.714C48.0252 215.404 47.9185 215.166 47.7052 214.999C47.4952 214.829 47.2202 214.744 46.8802 214.744C46.6502 214.744 46.4335 214.783 46.2302 214.859C46.0268 214.933 45.8618 215.046 45.7352 215.199C45.6118 215.349 45.5502 215.541 45.5502 215.774V219.224H44.6302ZM52.5769 219.324C52.0969 219.324 51.6736 219.219 51.3069 219.009C50.9402 218.799 50.6536 218.498 50.4469 218.104C50.2402 217.711 50.1369 217.239 50.1369 216.689C50.1369 216.146 50.2302 215.669 50.4169 215.259C50.6036 214.849 50.8736 214.529 51.2269 214.299C51.5836 214.069 52.0119 213.954 52.5119 213.954C52.9986 213.954 53.4102 214.059 53.7469 214.269C54.0836 214.479 54.3386 214.776 54.5119 215.159C54.6886 215.539 54.7769 215.991 54.7769 216.514V216.854H51.0719C51.0719 217.181 51.1252 217.478 51.2319 217.744C51.3419 218.008 51.5069 218.218 51.7269 218.374C51.9469 218.531 52.2252 218.609 52.5619 218.609C52.8919 218.609 53.1752 218.533 53.4119 218.379C53.6519 218.226 53.8052 218.004 53.8719 217.714H54.7419C54.6819 218.064 54.5419 218.359 54.3219 218.599C54.1052 218.839 53.8436 219.021 53.5369 219.144C53.2336 219.264 52.9136 219.324 52.5769 219.324ZM51.0769 216.229H53.8869C53.8869 215.933 53.8369 215.666 53.7369 215.429C53.6369 215.189 53.4836 215.001 53.2769 214.864C53.0736 214.724 52.8169 214.654 52.5069 214.654C52.1836 214.654 51.9152 214.733 51.7019 214.889C51.4886 215.043 51.3302 215.241 51.2269 215.484C51.1236 215.724 51.0736 215.973 51.0769 216.229Z" fill="#36536B"/>
<path d="M40.5877 221.265C40.231 221.265 39.9543 221.217 39.7577 221.12C39.561 221.024 39.4227 220.88 39.3427 220.69C39.266 220.5 39.2277 220.267 39.2277 219.99V216.745H38.3877V216.07H39.2527L39.4777 214.565H40.1577V216.065H41.3227V216.745H40.1577V219.96C40.1577 220.144 40.176 220.279 40.2127 220.365C40.2527 220.449 40.3177 220.502 40.4077 220.525C40.4977 220.549 40.6243 220.56 40.7877 220.56H41.3527V221.18C41.2893 221.204 41.1927 221.224 41.0627 221.24C40.936 221.257 40.7777 221.265 40.5877 221.265ZM44.5127 221.34C44.036 221.34 43.6193 221.239 43.2627 221.035C42.9093 220.829 42.6343 220.527 42.4377 220.13C42.241 219.734 42.1427 219.249 42.1427 218.675C42.1427 218.135 42.2343 217.662 42.4177 217.255C42.601 216.849 42.8693 216.534 43.2227 216.31C43.576 216.084 44.0077 215.97 44.5177 215.97C44.9943 215.97 45.4077 216.075 45.7577 216.285C46.1077 216.492 46.3793 216.797 46.5727 217.2C46.7693 217.604 46.8677 218.095 46.8677 218.675C46.8677 219.202 46.7777 219.665 46.5977 220.065C46.4177 220.465 46.1527 220.779 45.8027 221.005C45.456 221.229 45.026 221.34 44.5127 221.34ZM44.5177 220.61C44.8243 220.61 45.0843 220.532 45.2977 220.375C45.511 220.219 45.6727 219.994 45.7827 219.7C45.896 219.407 45.9527 219.059 45.9527 218.655C45.9527 218.285 45.9027 217.954 45.8027 217.66C45.706 217.364 45.5527 217.129 45.3427 216.955C45.1327 216.782 44.8577 216.695 44.5177 216.695C44.2043 216.695 43.9393 216.774 43.7227 216.93C43.506 217.084 43.341 217.307 43.2277 217.6C43.1177 217.894 43.0627 218.245 43.0627 218.655C43.0627 219.019 43.111 219.349 43.2077 219.645C43.3077 219.942 43.4643 220.177 43.6777 220.35C43.8943 220.524 44.1743 220.61 44.5177 220.61ZM49.7576 221.265C49.4009 221.265 49.1243 221.217 48.9276 221.12C48.7309 221.024 48.5926 220.88 48.5126 220.69C48.4359 220.5 48.3976 220.267 48.3976 219.99V216.745H47.5576V216.07H48.4226L48.6476 214.565H49.3276V216.065H50.4926V216.745H49.3276V219.96C49.3276 220.144 49.3459 220.279 49.3826 220.365C49.4226 220.449 49.4876 220.502 49.5776 220.525C49.6676 220.549 49.7943 220.56 49.9576 220.56H50.5226V221.18C50.4593 221.204 50.3626 221.224 50.2326 221.24C50.1059 221.257 49.9476 221.265 49.7576 221.265ZM53.17 221.34C52.8334 221.34 52.5367 221.282 52.28 221.165C52.0267 221.045 51.8267 220.874 51.68 220.65C51.5367 220.427 51.465 220.157 51.465 219.84C51.465 219.267 51.665 218.84 52.065 218.56C52.465 218.28 53.1067 218.13 53.99 218.11L54.91 218.085V217.68C54.91 217.364 54.815 217.114 54.625 216.93C54.435 216.744 54.1417 216.65 53.745 216.65C53.4484 216.654 53.1867 216.724 52.96 216.86C52.7334 216.997 52.5884 217.22 52.525 217.53H51.71C51.73 217.194 51.8234 216.91 51.99 216.68C52.16 216.447 52.3984 216.27 52.705 216.15C53.0117 216.03 53.3734 215.97 53.79 215.97C54.24 215.97 54.6134 216.034 54.91 216.16C55.21 216.287 55.4334 216.474 55.58 216.72C55.73 216.967 55.805 217.27 55.805 217.63V221.24H55.015L54.945 220.27C54.7484 220.674 54.495 220.954 54.185 221.11C53.8784 221.264 53.54 221.34 53.17 221.34ZM53.445 220.675C53.6217 220.675 53.795 220.644 53.965 220.58C54.1384 220.517 54.295 220.432 54.435 220.325C54.5784 220.215 54.6934 220.094 54.78 219.96C54.8667 219.824 54.91 219.684 54.91 219.54V218.655L54.145 218.67C53.7484 218.677 53.4184 218.717 53.155 218.79C52.8917 218.864 52.6934 218.979 52.56 219.135C52.4267 219.292 52.36 219.497 52.36 219.75C52.36 220.04 52.4617 220.267 52.665 220.43C52.8684 220.594 53.1284 220.675 53.445 220.675ZM58.5524 221.305C58.2724 221.305 58.0457 221.267 57.8724 221.19C57.7024 221.114 57.5707 221.01 57.4774 220.88C57.3874 220.75 57.3257 220.602 57.2924 220.435C57.2624 220.265 57.2474 220.09 57.2474 219.91V213.81H58.1574V219.82C58.1574 220.08 58.2074 220.275 58.3074 220.405C58.4107 220.535 58.554 220.607 58.7374 220.62L59.0174 220.625V221.225C58.9407 221.249 58.8607 221.267 58.7774 221.28C58.694 221.297 58.619 221.305 58.5524 221.305ZM64.1563 221.34C63.8197 221.34 63.523 221.282 63.2663 221.165C63.013 221.045 62.813 220.874 62.6663 220.65C62.523 220.427 62.4513 220.157 62.4513 219.84C62.4513 219.267 62.6513 218.84 63.0513 218.56C63.4513 218.28 64.093 218.13 64.9763 218.11L65.8963 218.085V217.68C65.8963 217.364 65.8013 217.114 65.6113 216.93C65.4213 216.744 65.128 216.65 64.7313 216.65C64.4347 216.654 64.173 216.724 63.9463 216.86C63.7197 216.997 63.5747 217.22 63.5113 217.53H62.6963C62.7163 217.194 62.8097 216.91 62.9763 216.68C63.1463 216.447 63.3847 216.27 63.6913 216.15C63.998 216.03 64.3597 215.97 64.7763 215.97C65.2263 215.97 65.5997 216.034 65.8963 216.16C66.1963 216.287 66.4197 216.474 66.5663 216.72C66.7163 216.967 66.7913 217.27 66.7913 217.63V221.24H66.0013L65.9313 220.27C65.7347 220.674 65.4813 220.954 65.1713 221.11C64.8647 221.264 64.5263 221.34 64.1563 221.34ZM64.4313 220.675C64.608 220.675 64.7813 220.644 64.9513 220.58C65.1247 220.517 65.2813 220.432 65.4213 220.325C65.5647 220.215 65.6797 220.094 65.7663 219.96C65.853 219.824 65.8963 219.684 65.8963 219.54V218.655L65.1313 218.67C64.7347 218.677 64.4047 218.717 64.1413 218.79C63.878 218.864 63.6797 218.979 63.5463 219.135C63.413 219.292 63.3463 219.497 63.3463 219.75C63.3463 220.04 63.448 220.267 63.6513 220.43C63.8547 220.594 64.1147 220.675 64.4313 220.675ZM68.2337 221.24V216.07H69.1237V216.82C69.267 216.594 69.4637 216.395 69.7137 216.225C69.9637 216.055 70.2887 215.97 70.6887 215.97C70.8754 215.97 71.0654 216.002 71.2587 216.065C71.4554 216.129 71.6354 216.224 71.7987 216.35C71.962 216.477 72.0887 216.632 72.1787 216.815C72.3387 216.562 72.5554 216.359 72.8287 216.205C73.102 216.049 73.4104 215.97 73.7537 215.97C73.9337 215.97 74.122 215.999 74.3187 216.055C74.5154 216.109 74.697 216.205 74.8637 216.345C75.0337 216.482 75.172 216.674 75.2787 216.92C75.3854 217.164 75.4387 217.477 75.4387 217.86V221.24H74.5087V217.95C74.5087 217.637 74.4587 217.395 74.3587 217.225C74.2587 217.052 74.127 216.93 73.9637 216.86C73.8037 216.79 73.632 216.755 73.4487 216.755C73.2887 216.755 73.1187 216.787 72.9387 216.85C72.7587 216.914 72.6054 217.02 72.4787 217.17C72.352 217.32 72.2887 217.525 72.2887 217.785V221.24H71.3687V217.68C71.3687 217.477 71.3137 217.307 71.2037 217.17C71.097 217.034 70.962 216.93 70.7987 216.86C70.6387 216.79 70.4787 216.755 70.3187 216.755C70.142 216.755 69.9637 216.79 69.7837 216.86C69.607 216.93 69.457 217.042 69.3337 217.195C69.2137 217.345 69.1537 217.542 69.1537 217.785V221.24H68.2337ZM78.956 221.34C78.4794 221.34 78.0627 221.239 77.706 221.035C77.3527 220.829 77.0777 220.527 76.881 220.13C76.6844 219.734 76.586 219.249 76.586 218.675C76.586 218.135 76.6777 217.662 76.861 217.255C77.0444 216.849 77.3127 216.534 77.666 216.31C78.0194 216.084 78.451 215.97 78.961 215.97C79.4377 215.97 79.851 216.075 80.201 216.285C80.551 216.492 80.8227 216.797 81.016 217.2C81.2127 217.604 81.311 218.095 81.311 218.675C81.311 219.202 81.221 219.665 81.041 220.065C80.861 220.465 80.596 220.779 80.246 221.005C79.8994 221.229 79.4694 221.34 78.956 221.34ZM78.961 220.61C79.2677 220.61 79.5277 220.532 79.741 220.375C79.9544 220.219 80.116 219.994 80.226 219.7C80.3394 219.407 80.396 219.059 80.396 218.655C80.396 218.285 80.346 217.954 80.246 217.66C80.1494 217.364 79.996 217.129 79.786 216.955C79.576 216.782 79.301 216.695 78.961 216.695C78.6477 216.695 78.3827 216.774 78.166 216.93C77.9494 217.084 77.7844 217.307 77.671 217.6C77.561 217.894 77.506 218.245 77.506 218.655C77.506 219.019 77.5544 219.349 77.651 219.645C77.751 219.942 77.9077 220.177 78.121 220.35C78.3377 220.524 78.6177 220.61 78.961 220.61ZM84.4208 221.34C84.1508 221.337 83.8958 221.299 83.6558 221.225C83.4191 221.149 83.2091 221.037 83.0258 220.89C82.8425 220.744 82.6975 220.562 82.5908 220.345C82.4875 220.125 82.4358 219.87 82.4358 219.58V216.07H83.3608V219.485C83.3608 219.822 83.4641 220.095 83.6708 220.305C83.8808 220.515 84.1958 220.62 84.6158 220.62C84.9958 220.62 85.3008 220.522 85.5308 220.325C85.7641 220.125 85.8808 219.829 85.8808 219.435V216.07H86.8008V221.24H86.0658L85.9708 220.25C85.9075 220.51 85.7991 220.72 85.6458 220.88C85.4958 221.04 85.3141 221.159 85.1008 221.235C84.8908 221.309 84.6641 221.344 84.4208 221.34ZM88.3802 221.24V216.07H89.2752V216.82C89.3585 216.677 89.4735 216.542 89.6202 216.415C89.7702 216.289 89.9502 216.187 90.1602 216.11C90.3735 216.034 90.6185 215.995 90.8952 215.995C91.2218 215.995 91.5218 216.06 91.7952 216.19C92.0718 216.32 92.2918 216.524 92.4552 216.8C92.6218 217.074 92.7052 217.427 92.7052 217.86V221.24H91.7802V217.95C91.7802 217.547 91.6735 217.249 91.4602 217.055C91.2502 216.859 90.9768 216.76 90.6402 216.76C90.4068 216.76 90.1885 216.799 89.9852 216.875C89.7818 216.949 89.6168 217.062 89.4902 217.215C89.3635 217.365 89.3002 217.555 89.3002 217.785V221.24H88.3802ZM95.8318 221.265C95.4751 221.265 95.1985 221.217 95.0018 221.12C94.8051 221.024 94.6668 220.88 94.5868 220.69C94.5101 220.5 94.4718 220.267 94.4718 219.99V216.745H93.6318V216.07H94.4968L94.7218 214.565H95.4018V216.065H96.5668V216.745H95.4018V219.96C95.4018 220.144 95.4201 220.279 95.4568 220.365C95.4968 220.449 95.5618 220.502 95.6518 220.525C95.7418 220.549 95.8685 220.56 96.0318 220.56H96.5968V221.18C96.5335 221.204 96.4368 221.224 96.3068 221.24C96.1801 221.257 96.0218 221.265 95.8318 221.265ZM102.013 221.34C101.34 221.34 100.807 221.11 100.413 220.65C100.023 220.19 99.8282 219.519 99.8282 218.635C99.8282 218.099 99.9066 217.63 100.063 217.23C100.22 216.83 100.455 216.52 100.768 216.3C101.082 216.08 101.472 215.97 101.938 215.97C102.188 215.97 102.408 216.002 102.598 216.065C102.788 216.129 102.953 216.209 103.093 216.305C103.233 216.402 103.347 216.502 103.433 216.605C103.523 216.709 103.59 216.804 103.633 216.89V213.81H104.568V221.24H103.858L103.758 220.18C103.725 220.28 103.672 220.397 103.598 220.53C103.525 220.66 103.422 220.789 103.288 220.915C103.158 221.039 102.988 221.14 102.778 221.22C102.568 221.3 102.313 221.34 102.013 221.34ZM102.178 220.63C102.698 220.63 103.07 220.472 103.293 220.155C103.52 219.835 103.633 219.314 103.633 218.59C103.63 218.187 103.58 217.844 103.483 217.56C103.387 217.277 103.233 217.062 103.023 216.915C102.817 216.765 102.54 216.69 102.193 216.69C101.77 216.69 101.425 216.842 101.158 217.145C100.892 217.449 100.758 217.93 100.758 218.59C100.758 219.237 100.878 219.739 101.118 220.095C101.358 220.452 101.712 220.63 102.178 220.63ZM108.28 221.34C107.8 221.34 107.377 221.235 107.01 221.025C106.643 220.815 106.357 220.514 106.15 220.12C105.943 219.727 105.84 219.255 105.84 218.705C105.84 218.162 105.933 217.685 106.12 217.275C106.307 216.865 106.577 216.545 106.93 216.315C107.287 216.085 107.715 215.97 108.215 215.97C108.702 215.97 109.113 216.075 109.45 216.285C109.787 216.495 110.042 216.792 110.215 217.175C110.392 217.555 110.48 218.007 110.48 218.53V218.87H106.775C106.775 219.197 106.828 219.494 106.935 219.76C107.045 220.024 107.21 220.234 107.43 220.39C107.65 220.547 107.928 220.625 108.265 220.625C108.595 220.625 108.878 220.549 109.115 220.395C109.355 220.242 109.508 220.02 109.575 219.73H110.445C110.385 220.08 110.245 220.375 110.025 220.615C109.808 220.855 109.547 221.037 109.24 221.16C108.937 221.28 108.617 221.34 108.28 221.34ZM106.78 218.245H109.59C109.59 217.949 109.54 217.682 109.44 217.445C109.34 217.205 109.187 217.017 108.98 216.88C108.777 216.74 108.52 216.67 108.21 216.67C107.887 216.67 107.618 216.749 107.405 216.905C107.192 217.059 107.033 217.257 106.93 217.5C106.827 217.74 106.777 217.989 106.78 218.245ZM113.644 221.34C112.971 221.34 112.437 221.11 112.044 220.65C111.654 220.19 111.459 219.519 111.459 218.635C111.459 218.099 111.537 217.63 111.694 217.23C111.851 216.83 112.086 216.52 112.399 216.3C112.712 216.08 113.102 215.97 113.569 215.97C113.819 215.97 114.039 216.002 114.229 216.065C114.419 216.129 114.584 216.209 114.724 216.305C114.864 216.402 114.977 216.502 115.064 216.605C115.154 216.709 115.221 216.804 115.264 216.89V213.81H116.199V221.24H115.489L115.389 220.18C115.356 220.28 115.302 220.397 115.229 220.53C115.156 220.66 115.052 220.789 114.919 220.915C114.789 221.039 114.619 221.14 114.409 221.22C114.199 221.3 113.944 221.34 113.644 221.34ZM113.809 220.63C114.329 220.63 114.701 220.472 114.924 220.155C115.151 219.835 115.264 219.314 115.264 218.59C115.261 218.187 115.211 217.844 115.114 217.56C115.017 217.277 114.864 217.062 114.654 216.915C114.447 216.765 114.171 216.69 113.824 216.69C113.401 216.69 113.056 216.842 112.789 217.145C112.522 217.449 112.389 217.93 112.389 218.59C112.389 219.237 112.509 219.739 112.749 220.095C112.989 220.452 113.342 220.63 113.809 220.63ZM119.626 221.34C119.356 221.337 119.101 221.299 118.861 221.225C118.624 221.149 118.414 221.037 118.231 220.89C118.048 220.744 117.903 220.562 117.796 220.345C117.693 220.125 117.641 219.87 117.641 219.58V216.07H118.566V219.485C118.566 219.822 118.669 220.095 118.876 220.305C119.086 220.515 119.401 220.62 119.821 220.62C120.201 220.62 120.506 220.522 120.736 220.325C120.969 220.125 121.086 219.829 121.086 219.435V216.07H122.006V221.24H121.271L121.176 220.25C121.113 220.51 121.004 220.72 120.851 220.88C120.701 221.04 120.519 221.159 120.306 221.235C120.096 221.309 119.869 221.344 119.626 221.34ZM125.607 221.34C125.14 221.34 124.727 221.239 124.367 221.035C124.01 220.832 123.73 220.532 123.527 220.135C123.327 219.739 123.227 219.252 123.227 218.675C123.227 218.135 123.318 217.664 123.502 217.26C123.688 216.854 123.958 216.537 124.312 216.31C124.668 216.084 125.1 215.97 125.607 215.97C125.977 215.97 126.308 216.042 126.602 216.185C126.898 216.325 127.142 216.525 127.332 216.785C127.522 217.045 127.638 217.352 127.682 217.705H126.862C126.832 217.525 126.762 217.36 126.652 217.21C126.545 217.06 126.403 216.94 126.227 216.85C126.053 216.76 125.848 216.715 125.612 216.715C125.168 216.715 124.807 216.875 124.527 217.195C124.25 217.515 124.112 218.005 124.112 218.665C124.112 219.262 124.238 219.74 124.492 220.1C124.748 220.457 125.125 220.635 125.622 220.635C125.858 220.635 126.065 220.59 126.242 220.5C126.418 220.407 126.56 220.285 126.667 220.135C126.773 219.982 126.842 219.819 126.872 219.645H127.677C127.633 219.992 127.515 220.292 127.322 220.545C127.132 220.799 126.888 220.995 126.592 221.135C126.298 221.272 125.97 221.34 125.607 221.34ZM130.627 221.265C130.27 221.265 129.993 221.217 129.797 221.12C129.6 221.024 129.462 220.88 129.382 220.69C129.305 220.5 129.267 220.267 129.267 219.99V216.745H128.427V216.07H129.292L129.517 214.565H130.197V216.065H131.362V216.745H130.197V219.96C130.197 220.144 130.215 220.279 130.252 220.365C130.292 220.449 130.357 220.502 130.447 220.525C130.537 220.549 130.663 220.56 130.827 220.56H131.392V221.18C131.328 221.204 131.232 221.224 131.102 221.24C130.975 221.257 130.817 221.265 130.627 221.265ZM134.667 221.34C134.187 221.34 133.763 221.235 133.397 221.025C133.03 220.815 132.743 220.514 132.537 220.12C132.33 219.727 132.227 219.255 132.227 218.705C132.227 218.162 132.32 217.685 132.507 217.275C132.693 216.865 132.963 216.545 133.317 216.315C133.673 216.085 134.102 215.97 134.602 215.97C135.088 215.97 135.5 216.075 135.837 216.285C136.173 216.495 136.428 216.792 136.602 217.175C136.778 217.555 136.867 218.007 136.867 218.53V218.87H133.162C133.162 219.197 133.215 219.494 133.322 219.76C133.432 220.024 133.597 220.234 133.817 220.39C134.037 220.547 134.315 220.625 134.652 220.625C134.982 220.625 135.265 220.549 135.502 220.395C135.742 220.242 135.895 220.02 135.962 219.73H136.832C136.772 220.08 136.632 220.375 136.412 220.615C136.195 220.855 135.933 221.037 135.627 221.16C135.323 221.28 135.003 221.34 134.667 221.34ZM133.167 218.245H135.977C135.977 217.949 135.927 217.682 135.827 217.445C135.727 217.205 135.573 217.017 135.367 216.88C135.163 216.74 134.907 216.67 134.597 216.67C134.273 216.67 134.005 216.749 133.792 216.905C133.578 217.059 133.42 217.257 133.317 217.5C133.213 217.74 133.163 217.989 133.167 218.245ZM140.031 221.34C139.357 221.34 138.824 221.11 138.431 220.65C138.041 220.19 137.846 219.519 137.846 218.635C137.846 218.099 137.924 217.63 138.081 217.23C138.237 216.83 138.472 216.52 138.786 216.3C139.099 216.08 139.489 215.97 139.956 215.97C140.206 215.97 140.426 216.002 140.616 216.065C140.806 216.129 140.971 216.209 141.111 216.305C141.251 216.402 141.364 216.502 141.451 216.605C141.541 216.709 141.607 216.804 141.651 216.89V213.81H142.586V221.24H141.876L141.776 220.18C141.742 220.28 141.689 220.397 141.616 220.53C141.542 220.66 141.439 220.789 141.306 220.915C141.176 221.039 141.006 221.14 140.796 221.22C140.586 221.3 140.331 221.34 140.031 221.34ZM140.196 220.63C140.716 220.63 141.087 220.472 141.311 220.155C141.537 219.835 141.651 219.314 141.651 218.59C141.647 218.187 141.597 217.844 141.501 217.56C141.404 217.277 141.251 217.062 141.041 216.915C140.834 216.765 140.557 216.69 140.211 216.69C139.787 216.69 139.442 216.842 139.176 217.145C138.909 217.449 138.776 217.93 138.776 218.59C138.776 219.237 138.896 219.739 139.136 220.095C139.376 220.452 139.729 220.63 140.196 220.63ZM147.234 221.24V216.745H146.139V216.07H147.234V215.27C147.234 214.86 147.338 214.549 147.544 214.335C147.754 214.119 148.068 214.01 148.484 214.01H149.459L149.464 214.665H148.694C148.481 214.665 148.336 214.722 148.259 214.835C148.183 214.949 148.144 215.12 148.144 215.35V216.07H149.414V216.745H148.159V221.24H147.234ZM150.499 221.24V216.07H151.379V217.065C151.466 216.819 151.588 216.615 151.744 216.455C151.901 216.292 152.079 216.17 152.279 216.09C152.483 216.01 152.693 215.97 152.909 215.97C152.986 215.97 153.061 215.975 153.134 215.985C153.208 215.995 153.264 216.012 153.304 216.035V216.93C153.254 216.907 153.189 216.892 153.109 216.885C153.033 216.875 152.968 216.87 152.914 216.87C152.708 216.857 152.514 216.87 152.334 216.91C152.154 216.947 151.996 217.012 151.859 217.105C151.723 217.199 151.614 217.322 151.534 217.475C151.458 217.625 151.419 217.809 151.419 218.025V221.24H150.499ZM156.397 221.34C155.921 221.34 155.504 221.239 155.147 221.035C154.794 220.829 154.519 220.527 154.322 220.13C154.126 219.734 154.027 219.249 154.027 218.675C154.027 218.135 154.119 217.662 154.302 217.255C154.486 216.849 154.754 216.534 155.107 216.31C155.461 216.084 155.892 215.97 156.402 215.97C156.879 215.97 157.292 216.075 157.642 216.285C157.992 216.492 158.264 216.797 158.457 217.2C158.654 217.604 158.752 218.095 158.752 218.675C158.752 219.202 158.662 219.665 158.482 220.065C158.302 220.465 158.037 220.779 157.687 221.005C157.341 221.229 156.911 221.34 156.397 221.34ZM156.402 220.61C156.709 220.61 156.969 220.532 157.182 220.375C157.396 220.219 157.557 219.994 157.667 219.7C157.781 219.407 157.837 219.059 157.837 218.655C157.837 218.285 157.787 217.954 157.687 217.66C157.591 217.364 157.437 217.129 157.227 216.955C157.017 216.782 156.742 216.695 156.402 216.695C156.089 216.695 155.824 216.774 155.607 216.93C155.391 217.084 155.226 217.307 155.112 217.6C155.002 217.894 154.947 218.245 154.947 218.655C154.947 219.019 154.996 219.349 155.092 219.645C155.192 219.942 155.349 220.177 155.562 220.35C155.779 220.524 156.059 220.61 156.402 220.61ZM159.982 221.24V216.07H160.872V216.82C161.015 216.594 161.212 216.395 161.462 216.225C161.712 216.055 162.037 215.97 162.437 215.97C162.623 215.97 162.813 216.002 163.007 216.065C163.203 216.129 163.383 216.224 163.547 216.35C163.71 216.477 163.837 216.632 163.927 216.815C164.087 216.562 164.303 216.359 164.577 216.205C164.85 216.049 165.158 215.97 165.502 215.97C165.682 215.97 165.87 215.999 166.067 216.055C166.263 216.109 166.445 216.205 166.612 216.345C166.782 216.482 166.92 216.674 167.027 216.92C167.133 217.164 167.187 217.477 167.187 217.86V221.24H166.257V217.95C166.257 217.637 166.207 217.395 166.107 217.225C166.007 217.052 165.875 216.93 165.712 216.86C165.552 216.79 165.38 216.755 165.197 216.755C165.037 216.755 164.867 216.787 164.687 216.85C164.507 216.914 164.353 217.02 164.227 217.17C164.1 217.32 164.037 217.525 164.037 217.785V221.24H163.117V217.68C163.117 217.477 163.062 217.307 162.952 217.17C162.845 217.034 162.71 216.93 162.547 216.86C162.387 216.79 162.227 216.755 162.067 216.755C161.89 216.755 161.712 216.79 161.532 216.86C161.355 216.93 161.205 217.042 161.082 217.195C160.962 217.345 160.902 217.542 160.902 217.785V221.24H159.982ZM39.2077 234.89C38.9043 234.89 38.696 234.869 38.5827 234.825C38.4693 234.782 38.4127 234.76 38.4127 234.76V234.16L38.9427 234.17C39.1327 234.177 39.291 234.164 39.4177 234.13C39.5443 234.097 39.646 234.052 39.7227 233.995C39.7993 233.939 39.8577 233.875 39.8977 233.805C39.941 233.735 39.976 233.669 40.0027 233.605L40.1827 233.115L38.1627 228.07H39.0977L40.6227 232.06L42.1377 228.07H43.0427L40.8677 233.63C40.731 233.957 40.5793 234.212 40.4127 234.395C40.2493 234.579 40.066 234.707 39.8627 234.78C39.6627 234.854 39.4443 234.89 39.2077 234.89ZM46.0166 233.34C45.5399 233.34 45.1232 233.239 44.7666 233.035C44.4132 232.829 44.1382 232.527 43.9416 232.13C43.7449 231.734 43.6466 231.249 43.6466 230.675C43.6466 230.135 43.7382 229.662 43.9216 229.255C44.1049 228.849 44.3732 228.534 44.7266 228.31C45.0799 228.084 45.5116 227.97 46.0216 227.97C46.4982 227.97 46.9116 228.075 47.2616 228.285C47.6116 228.492 47.8832 228.797 48.0766 229.2C48.2732 229.604 48.3716 230.095 48.3716 230.675C48.3716 231.202 48.2816 231.665 48.1016 232.065C47.9216 232.465 47.6566 232.779 47.3066 233.005C46.9599 233.229 46.5299 233.34 46.0166 233.34ZM46.0216 232.61C46.3282 232.61 46.5882 232.532 46.8016 232.375C47.0149 232.219 47.1766 231.994 47.2866 231.7C47.3999 231.407 47.4566 231.059 47.4566 230.655C47.4566 230.285 47.4066 229.954 47.3066 229.66C47.2099 229.364 47.0566 229.129 46.8466 228.955C46.6366 228.782 46.3616 228.695 46.0216 228.695C45.7082 228.695 45.4432 228.774 45.2266 228.93C45.0099 229.084 44.8449 229.307 44.7316 229.6C44.6216 229.894 44.5666 230.245 44.5666 230.655C44.5666 231.019 44.6149 231.349 44.7116 231.645C44.8116 231.942 44.9682 232.177 45.1816 232.35C45.3982 232.524 45.6782 232.61 46.0216 232.61ZM51.4813 233.34C51.2113 233.337 50.9563 233.299 50.7163 233.225C50.4797 233.149 50.2697 233.037 50.0863 232.89C49.903 232.744 49.758 232.562 49.6513 232.345C49.548 232.125 49.4963 231.87 49.4963 231.58V228.07H50.4213V231.485C50.4213 231.822 50.5247 232.095 50.7313 232.305C50.9413 232.515 51.2563 232.62 51.6763 232.62C52.0563 232.62 52.3613 232.522 52.5913 232.325C52.8247 232.125 52.9413 231.829 52.9413 231.435V228.07H53.8613V233.24H53.1263L53.0313 232.25C52.968 232.51 52.8597 232.72 52.7063 232.88C52.5563 233.04 52.3747 233.159 52.1613 233.235C51.9513 233.309 51.7247 233.344 51.4813 233.34ZM55.4407 233.24V228.07H56.3207V229.065C56.4074 228.819 56.5291 228.615 56.6857 228.455C56.8424 228.292 57.0207 228.17 57.2207 228.09C57.4241 228.01 57.6341 227.97 57.8507 227.97C57.9274 227.97 58.0024 227.975 58.0757 227.985C58.1491 227.995 58.2057 228.012 58.2457 228.035V228.93C58.1957 228.907 58.1307 228.892 58.0507 228.885C57.9741 228.875 57.9091 228.87 57.8557 228.87C57.6491 228.857 57.4557 228.87 57.2757 228.91C57.0957 228.947 56.9374 229.012 56.8007 229.105C56.6641 229.199 56.5557 229.322 56.4757 229.475C56.3991 229.625 56.3607 229.809 56.3607 230.025V233.24H55.4407Z" fill="#36536B"/>
<path d="M40.1427 235.356C39.806 235.356 39.5093 235.298 39.2527 235.181C38.9993 235.061 38.7993 234.89 38.6527 234.666C38.5093 234.443 38.4377 234.173 38.4377 233.856C38.4377 233.283 38.6377 232.856 39.0377 232.576C39.4377 232.296 40.0793 232.146 40.9627 232.126L41.8827 232.101V231.696C41.8827 231.38 41.7877 231.13 41.5977 230.946C41.4077 230.76 41.1143 230.666 40.7177 230.666C40.421 230.67 40.1593 230.74 39.9327 230.876C39.706 231.013 39.561 231.236 39.4977 231.546H38.6827C38.7027 231.21 38.796 230.926 38.9627 230.696C39.1327 230.463 39.371 230.286 39.6777 230.166C39.9843 230.046 40.346 229.986 40.7627 229.986C41.2127 229.986 41.586 230.05 41.8827 230.176C42.1827 230.303 42.406 230.49 42.5527 230.736C42.7027 230.983 42.7777 231.286 42.7777 231.646V235.256H41.9877L41.9177 234.286C41.721 234.69 41.4677 234.97 41.1577 235.126C40.851 235.28 40.5127 235.356 40.1427 235.356ZM40.4177 234.691C40.5943 234.691 40.7677 234.66 40.9377 234.596C41.111 234.533 41.2677 234.448 41.4077 234.341C41.551 234.231 41.666 234.11 41.7527 233.976C41.8393 233.84 41.8827 233.7 41.8827 233.556V232.671L41.1177 232.686C40.721 232.693 40.391 232.733 40.1277 232.806C39.8643 232.88 39.666 232.995 39.5327 233.151C39.3993 233.308 39.3327 233.513 39.3327 233.766C39.3327 234.056 39.4343 234.283 39.6377 234.446C39.841 234.61 40.101 234.691 40.4177 234.691ZM46.3 235.356C45.8334 235.356 45.42 235.255 45.06 235.051C44.7034 234.848 44.4234 234.548 44.22 234.151C44.02 233.755 43.92 233.268 43.92 232.691C43.92 232.151 44.0117 231.68 44.195 231.276C44.3817 230.87 44.6517 230.553 45.005 230.326C45.3617 230.1 45.7934 229.986 46.3 229.986C46.67 229.986 47.0017 230.058 47.295 230.201C47.5917 230.341 47.835 230.541 48.025 230.801C48.215 231.061 48.3317 231.368 48.375 231.721H47.555C47.525 231.541 47.455 231.376 47.345 231.226C47.2384 231.076 47.0967 230.956 46.92 230.866C46.7467 230.776 46.5417 230.731 46.305 230.731C45.8617 230.731 45.5 230.891 45.22 231.211C44.9434 231.531 44.805 232.021 44.805 232.681C44.805 233.278 44.9317 233.756 45.185 234.116C45.4417 234.473 45.8184 234.651 46.315 234.651C46.5517 234.651 46.7584 234.606 46.935 234.516C47.1117 234.423 47.2534 234.301 47.36 234.151C47.4667 233.998 47.535 233.835 47.565 233.661H48.37C48.3267 234.008 48.2084 234.308 48.015 234.561C47.825 234.815 47.5817 235.011 47.285 235.151C46.9917 235.288 46.6634 235.356 46.3 235.356ZM51.7102 235.356C51.2435 235.356 50.8302 235.255 50.4702 235.051C50.1135 234.848 49.8335 234.548 49.6302 234.151C49.4302 233.755 49.3302 233.268 49.3302 232.691C49.3302 232.151 49.4218 231.68 49.6052 231.276C49.7918 230.87 50.0618 230.553 50.4152 230.326C50.7718 230.1 51.2035 229.986 51.7102 229.986C52.0802 229.986 52.4118 230.058 52.7052 230.201C53.0018 230.341 53.2452 230.541 53.4352 230.801C53.6252 231.061 53.7418 231.368 53.7852 231.721H52.9652C52.9352 231.541 52.8652 231.376 52.7552 231.226C52.6485 231.076 52.5068 230.956 52.3302 230.866C52.1568 230.776 51.9518 230.731 51.7152 230.731C51.2718 230.731 50.9102 230.891 50.6302 231.211C50.3535 231.531 50.2152 232.021 50.2152 232.681C50.2152 233.278 50.3418 233.756 50.5952 234.116C50.8518 234.473 51.2285 234.651 51.7252 234.651C51.9618 234.651 52.1685 234.606 52.3452 234.516C52.5218 234.423 52.6635 234.301 52.7702 234.151C52.8768 233.998 52.9452 233.835 52.9752 233.661H53.7802C53.7368 234.008 53.6185 234.308 53.4252 234.561C53.2352 234.815 52.9918 235.011 52.6952 235.151C52.4018 235.288 52.0735 235.356 51.7102 235.356ZM57.1103 235.356C56.6337 235.356 56.217 235.255 55.8603 235.051C55.507 234.845 55.232 234.543 55.0353 234.146C54.8387 233.75 54.7403 233.265 54.7403 232.691C54.7403 232.151 54.832 231.678 55.0153 231.271C55.1987 230.865 55.467 230.55 55.8203 230.326C56.1737 230.1 56.6053 229.986 57.1153 229.986C57.592 229.986 58.0053 230.091 58.3553 230.301C58.7053 230.508 58.977 230.813 59.1703 231.216C59.367 231.62 59.4653 232.111 59.4653 232.691C59.4653 233.218 59.3753 233.681 59.1953 234.081C59.0153 234.481 58.7503 234.795 58.4003 235.021C58.0537 235.245 57.6237 235.356 57.1103 235.356ZM57.1153 234.626C57.422 234.626 57.682 234.548 57.8953 234.391C58.1087 234.235 58.2703 234.01 58.3803 233.716C58.4937 233.423 58.5503 233.075 58.5503 232.671C58.5503 232.301 58.5003 231.97 58.4003 231.676C58.3037 231.38 58.1503 231.145 57.9403 230.971C57.7303 230.798 57.4553 230.711 57.1153 230.711C56.802 230.711 56.537 230.79 56.3203 230.946C56.1037 231.1 55.9387 231.323 55.8253 231.616C55.7153 231.91 55.6603 232.261 55.6603 232.671C55.6603 233.035 55.7087 233.365 55.8053 233.661C55.9053 233.958 56.062 234.193 56.2753 234.366C56.492 234.54 56.772 234.626 57.1153 234.626ZM62.5751 235.356C62.3051 235.353 62.0501 235.315 61.8101 235.241C61.5734 235.165 61.3634 235.053 61.1801 234.906C60.9968 234.76 60.8518 234.578 60.7451 234.361C60.6418 234.141 60.5901 233.886 60.5901 233.596V230.086H61.5151V233.501C61.5151 233.838 61.6184 234.111 61.8251 234.321C62.0351 234.531 62.3501 234.636 62.7701 234.636C63.1501 234.636 63.4551 234.538 63.6851 234.341C63.9184 234.141 64.0351 233.845 64.0351 233.451V230.086H64.9551V235.256H64.2201L64.1251 234.266C64.0618 234.526 63.9534 234.736 63.8001 234.896C63.6501 235.056 63.4684 235.175 63.2551 235.251C63.0451 235.325 62.8184 235.36 62.5751 235.356ZM66.5345 235.256V230.086H67.4295V230.836C67.5128 230.693 67.6278 230.558 67.7745 230.431C67.9245 230.305 68.1045 230.203 68.3145 230.126C68.5278 230.05 68.7728 230.011 69.0495 230.011C69.3761 230.011 69.6761 230.076 69.9495 230.206C70.2261 230.336 70.4461 230.54 70.6095 230.816C70.7761 231.09 70.8595 231.443 70.8595 231.876V235.256H69.9345V231.966C69.9345 231.563 69.8278 231.265 69.6145 231.071C69.4045 230.875 69.1311 230.776 68.7945 230.776C68.5611 230.776 68.3428 230.815 68.1395 230.891C67.9361 230.965 67.7711 231.078 67.6445 231.231C67.5178 231.381 67.4545 231.571 67.4545 231.801V235.256H66.5345ZM73.9861 235.281C73.6294 235.281 73.3528 235.233 73.1561 235.136C72.9594 235.04 72.8211 234.896 72.7411 234.706C72.6644 234.516 72.6261 234.283 72.6261 234.006V230.761H71.7861V230.086H72.6511L72.8761 228.581H73.5561V230.081H74.7211V230.761H73.5561V233.976C73.5561 234.16 73.5744 234.295 73.6111 234.381C73.6511 234.465 73.7161 234.518 73.8061 234.541C73.8961 234.565 74.0228 234.576 74.1861 234.576H74.7511V235.196C74.6878 235.22 74.5911 235.24 74.4611 235.256C74.3344 235.273 74.1761 235.281 73.9861 235.281ZM78.4345 235.256V230.086H79.3295V235.256H78.4345ZM78.4095 228.991V228.031H79.3545V228.991H78.4095ZM82.7402 235.356C82.3802 235.356 82.0452 235.301 81.7352 235.191C81.4285 235.078 81.1735 234.903 80.9702 234.666C80.7668 234.426 80.6402 234.121 80.5902 233.751H81.4302C81.4735 233.955 81.5568 234.125 81.6802 234.261C81.8035 234.395 81.9552 234.496 82.1352 234.566C82.3185 234.633 82.5185 234.666 82.7352 234.666C83.0852 234.666 83.3668 234.601 83.5802 234.471C83.7935 234.341 83.9002 234.141 83.9002 233.871C83.9002 233.681 83.8435 233.53 83.7302 233.416C83.6202 233.3 83.4468 233.215 83.2102 233.161L82.1402 232.896C81.7235 232.796 81.3902 232.64 81.1402 232.426C80.8935 232.213 80.7685 231.915 80.7652 231.531C80.7652 231.228 80.8385 230.961 80.9852 230.731C81.1318 230.501 81.3502 230.32 81.6402 230.186C81.9335 230.053 82.2985 229.986 82.7352 229.986C83.2985 229.986 83.7518 230.113 84.0952 230.366C84.4385 230.616 84.6185 230.985 84.6352 231.471H83.8152C83.7818 231.225 83.6718 231.03 83.4852 230.886C83.2985 230.74 83.0452 230.666 82.7252 230.666C82.3985 230.666 82.1302 230.733 81.9202 230.866C81.7135 230.996 81.6102 231.2 81.6102 231.476C81.6102 231.66 81.6835 231.805 81.8302 231.911C81.9802 232.015 82.1968 232.101 82.4802 232.171L83.5202 232.431C83.7568 232.495 83.9535 232.578 84.1102 232.681C84.2668 232.785 84.3902 232.9 84.4802 233.026C84.5702 233.153 84.6335 233.286 84.6702 233.426C84.7102 233.563 84.7302 233.695 84.7302 233.821C84.7302 234.138 84.6518 234.411 84.4952 234.641C84.3385 234.868 84.1118 235.045 83.8152 235.171C83.5185 235.295 83.1602 235.356 82.7402 235.356ZM91.1296 235.356C90.4263 235.356 89.863 235.24 89.4396 235.006C89.0163 234.77 88.7096 234.435 88.5196 234.001C88.333 233.568 88.2396 233.051 88.2396 232.451V228.026H89.7246V232.561C89.7246 233.101 89.8546 233.496 90.1146 233.746C90.3746 233.993 90.713 234.116 91.1296 234.116C91.4063 234.116 91.6513 234.063 91.8646 233.956C92.078 233.846 92.2446 233.678 92.3646 233.451C92.488 233.221 92.5496 232.925 92.5496 232.561V228.026H94.0246V232.501C94.0246 233.085 93.9296 233.591 93.7396 234.021C93.5496 234.448 93.2413 234.778 92.8146 235.011C92.3913 235.241 91.8296 235.356 91.1296 235.356ZM98.186 235.356C97.826 235.356 97.4743 235.311 97.131 235.221C96.7876 235.131 96.4743 234.996 96.191 234.816C95.9076 234.636 95.6743 234.411 95.491 234.141C95.311 233.871 95.2026 233.555 95.166 233.191H96.661C96.711 233.411 96.806 233.596 96.946 233.746C97.0893 233.896 97.2726 234.011 97.496 234.091C97.7226 234.171 97.981 234.211 98.271 234.211C98.501 234.211 98.7193 234.178 98.926 234.111C99.1326 234.045 99.301 233.943 99.431 233.806C99.561 233.67 99.626 233.498 99.626 233.291C99.626 233.045 99.536 232.86 99.356 232.736C99.176 232.61 98.931 232.51 98.621 232.436L97.266 232.141C96.8826 232.061 96.5476 231.938 96.261 231.771C95.9776 231.601 95.7593 231.381 95.606 231.111C95.4526 230.838 95.376 230.506 95.376 230.116C95.376 229.666 95.4993 229.278 95.746 228.951C95.996 228.625 96.3343 228.375 96.761 228.201C97.191 228.025 97.6726 227.936 98.206 227.936C98.8093 227.936 99.3176 228.035 99.731 228.231C100.148 228.425 100.466 228.688 100.686 229.021C100.906 229.351 101.018 229.72 101.021 230.126H99.561C99.5343 229.876 99.4576 229.676 99.331 229.526C99.2043 229.373 99.041 229.263 98.841 229.196C98.6443 229.126 98.4193 229.091 98.166 229.091C97.7293 229.091 97.411 229.18 97.211 229.356C97.011 229.533 96.911 229.738 96.911 229.971C96.911 230.191 96.986 230.37 97.136 230.506C97.2893 230.64 97.5343 230.741 97.871 230.811L99.126 231.081C99.5926 231.171 99.971 231.315 100.261 231.511C100.551 231.705 100.763 231.94 100.896 232.216C101.029 232.493 101.096 232.803 101.096 233.146C101.096 233.583 100.971 233.968 100.721 234.301C100.474 234.631 100.133 234.89 99.696 235.076C99.2593 235.263 98.756 235.356 98.186 235.356ZM41.4627 247.356C40.596 247.356 39.8927 247.183 39.3527 246.836C38.8127 246.486 38.5027 245.948 38.4227 245.221L39.9427 245.191C40.0227 245.521 40.1943 245.773 40.4577 245.946C40.7243 246.116 41.0577 246.201 41.4577 246.201C41.6977 246.201 41.9093 246.163 42.0927 246.086C42.2793 246.006 42.426 245.9 42.5327 245.766C42.6393 245.63 42.6927 245.475 42.6927 245.301C42.6927 245.035 42.6077 244.836 42.4377 244.706C42.2677 244.573 42.006 244.466 41.6527 244.386L40.4677 244.131C39.9177 244.021 39.476 243.803 39.1427 243.476C38.8127 243.146 38.6443 242.705 38.6377 242.151C38.6343 241.698 38.756 241.306 39.0027 240.976C39.2527 240.643 39.591 240.386 40.0177 240.206C40.4477 240.026 40.9293 239.936 41.4627 239.936C42.0093 239.936 42.481 240.035 42.8777 240.231C43.2777 240.425 43.5843 240.686 43.7977 241.016C44.0143 241.343 44.1193 241.705 44.1127 242.101L42.6377 242.126C42.591 241.806 42.4843 241.555 42.3177 241.371C42.151 241.188 41.8743 241.096 41.4877 241.096C41.2877 241.096 41.1093 241.118 40.9527 241.161C40.796 241.205 40.661 241.266 40.5477 241.346C40.4343 241.423 40.3477 241.515 40.2877 241.621C40.231 241.728 40.2027 241.848 40.2027 241.981C40.2027 242.191 40.2727 242.358 40.4127 242.481C40.556 242.601 40.8243 242.713 41.2177 242.816L42.3827 243.101C43.0393 243.258 43.5127 243.526 43.8027 243.906C44.096 244.286 44.2427 244.748 44.2427 245.291C44.2427 245.708 44.1277 246.071 43.8977 246.381C43.671 246.691 43.3493 246.931 42.9327 247.101C42.516 247.271 42.026 247.356 41.4627 247.356ZM40.8127 248.211V246.911H42.0727V248.211H40.8127ZM40.8377 240.291V238.991H42.1027V240.291H40.8377ZM46.4543 247.256V241.841H45.1643V241.016C45.5776 241.016 45.911 240.978 46.1643 240.901C46.421 240.821 46.6126 240.708 46.7393 240.561C46.866 240.411 46.941 240.233 46.9643 240.026H47.9343V247.256H46.4543ZM52.2417 247.366C51.365 247.366 50.68 247.048 50.1867 246.411C49.6967 245.775 49.4517 244.858 49.4517 243.661C49.4517 242.861 49.565 242.183 49.7917 241.626C50.0183 241.07 50.34 240.648 50.7567 240.361C51.1733 240.071 51.6683 239.926 52.2417 239.926C53.1017 239.926 53.78 240.248 54.2767 240.891C54.7733 241.531 55.0217 242.453 55.0217 243.656C55.0217 244.853 54.7767 245.771 54.2867 246.411C53.7967 247.048 53.115 247.366 52.2417 247.366ZM52.2417 246.171C52.6717 246.171 52.9867 245.98 53.1867 245.596C53.3867 245.21 53.4867 244.565 53.4867 243.661C53.4867 242.738 53.385 242.076 53.1817 241.676C52.9783 241.276 52.6633 241.076 52.2367 241.076C51.81 241.076 51.4917 241.278 51.2817 241.681C51.075 242.085 50.9717 242.745 50.9717 243.661C50.9717 244.561 51.075 245.205 51.2817 245.591C51.4883 245.978 51.8083 246.171 52.2417 246.171ZM59.1729 247.256L59.1779 245.656H55.8479V244.456L59.1429 240.026H60.5779V244.431H61.6929V245.656H60.5779V247.256H59.1729ZM57.1979 244.431H59.1779V241.781L57.1979 244.431ZM62.4754 247.256V245.666H64.0754V247.256H62.4754ZM67.7707 247.366C67.3207 247.366 66.9007 247.28 66.5107 247.106C66.1207 246.933 65.8024 246.69 65.5557 246.376C65.3091 246.06 65.1707 245.69 65.1407 245.266H66.5307C66.5907 245.546 66.7241 245.775 66.9307 245.951C67.1374 246.125 67.3974 246.211 67.7107 246.211C68.0574 246.211 68.3607 246.13 68.6207 245.966C68.8841 245.803 69.0807 245.543 69.2107 245.186C69.3441 244.83 69.3907 244.363 69.3507 243.786C69.2574 243.963 69.1274 244.118 68.9607 244.251C68.7974 244.381 68.6057 244.483 68.3857 244.556C68.1657 244.626 67.9207 244.661 67.6507 244.661C67.1607 244.661 66.7257 244.57 66.3457 244.386C65.9691 244.2 65.6724 243.936 65.4557 243.596C65.2424 243.253 65.1357 242.846 65.1357 242.376C65.1357 241.903 65.2491 241.481 65.4757 241.111C65.7024 240.741 66.0191 240.451 66.4257 240.241C66.8324 240.031 67.3091 239.926 67.8557 239.926C68.4691 239.926 68.9974 240.073 69.4407 240.366C69.8874 240.656 70.2291 241.07 70.4657 241.606C70.7057 242.14 70.8257 242.768 70.8257 243.491C70.8257 244.355 70.7024 245.075 70.4557 245.651C70.2124 246.225 69.8624 246.655 69.4057 246.941C68.9491 247.225 68.4041 247.366 67.7707 247.366ZM67.9007 243.501C68.1041 243.501 68.3007 243.456 68.4907 243.366C68.6841 243.273 68.8424 243.156 68.9657 243.016C69.0891 242.876 69.1507 242.731 69.1507 242.581C69.1541 242.258 69.1024 241.981 68.9957 241.751C68.8924 241.518 68.7457 241.34 68.5557 241.216C68.3691 241.093 68.1507 241.031 67.9007 241.031C67.6707 241.031 67.4657 241.085 67.2857 241.191C67.1057 241.298 66.9641 241.448 66.8607 241.641C66.7574 241.835 66.7057 242.058 66.7057 242.311C66.7057 242.688 66.8157 242.981 67.0357 243.191C67.2557 243.398 67.5441 243.501 67.9007 243.501ZM74.4682 247.366C73.5916 247.366 72.9066 247.048 72.4132 246.411C71.9232 245.775 71.6782 244.858 71.6782 243.661C71.6782 242.861 71.7916 242.183 72.0182 241.626C72.2449 241.07 72.5666 240.648 72.9832 240.361C73.3999 240.071 73.8949 239.926 74.4682 239.926C75.3282 239.926 76.0066 240.248 76.5032 240.891C76.9999 241.531 77.2482 242.453 77.2482 243.656C77.2482 244.853 77.0032 245.771 76.5132 246.411C76.0232 247.048 75.3416 247.366 74.4682 247.366ZM74.4682 246.171C74.8982 246.171 75.2132 245.98 75.4132 245.596C75.6132 245.21 75.7132 244.565 75.7132 243.661C75.7132 242.738 75.6116 242.076 75.4082 241.676C75.2049 241.276 74.8899 241.076 74.4632 241.076C74.0366 241.076 73.7182 241.278 73.5082 241.681C73.3016 242.085 73.1982 242.745 73.1982 243.661C73.1982 244.561 73.3016 245.205 73.5082 245.591C73.7149 245.978 74.0349 246.171 74.4682 246.171ZM78.2335 247.256V246.076H79.3335V247.256H78.2335Z" fill="#36536B"/>
</g>
<defs>
<filter id="filter0_d_2_5" x="-52.4369" y="-54.4303" width="417.159" height="659.43" filterUnits="userSpaceOnUse" color-interpolation-filters="sRGB">
<feFlood flood-opacity="0" result="BackgroundImageFix"/>
<feColorMatrix in="SourceAlpha" type="matrix" values="0 0 0 0 0 0 0 0 0 0 0 0 0 0 0 0 0 0 127 0" result="hardAlpha"/>
<feOffset dx="25" dy="25"/>
<feGaussianBlur stdDeviation="40"/>
<feColorMatrix type="matrix" values="0 0 0 0 0.212302 0 0 0 0 0.32521 0 0 0 0 0.419299 0 0 0 0.300727 0"/>
<feBlend mode="normal" in2="BackgroundImageFix" result="effect1_dropShadow_2_5"/>
<feBlend mode="normal" in="SourceGraphic" in2="effect1_dropShadow_2_5" result="shape"/>
</filter>
<filter id="filter1_d_2_5" x="6.95813" y="152.19" width="267.585" height="137.099" filterUnits="userSpaceOnUse" color-interpolation-filters="sRGB">
<feFlood flood-opacity="0" result="BackgroundImageFix"/>
<feColorMatrix in="SourceAlpha" type="matrix" values="0 0 0 0 0 0 0 0 0 0 0 0 0 0 0 0 0 0 127 0" result="hardAlpha"/>
<feOffset dx="10" dy="10"/>
<feGaussianBlur stdDeviation="12.5"/>
<feColorMatrix type="matrix" values="0 0 0 0 0.212302 0 0 0 0 0.32521 0 0 0 0 0.419299 0 0 0 0.25 0"/>
<feBlend mode="normal" in2="BackgroundImageFix" result="effect1_dropShadow_2_5"/>
<feBlend mode="normal" in="SourceGraphic" in2="effect1_dropShadow_2_5" result="shape"/>
</filter>
<linearGradient id="paint0_linear_2_5" x1="12119" y1="0" x2="12119" y2="1233.8" gradientUnits="userSpaceOnUse">
<stop stop-color="#454545"/>
<stop offset="0.22628" stop-color="#999999"/>
<stop offset="1" stop-color="white"/>
</linearGradient>
<linearGradient id="paint1_linear_2_5" x1="1608.6" y1="23573.1" x2="664.332" y2="23573.1" gradientUnits="userSpaceOnUse">
<stop stop-color="white" stop-opacity="0"/>
<stop offset="0.22218" stop-color="#BABABA"/>
<stop offset="0.54678" stop-color="white" stop-opacity="0"/>
<stop offset="1" stop-color="white" stop-opacity="0"/>
</linearGradient>
<linearGradient id="paint2_linear_2_5" x1="-1346.43" y1="23573.1" x2="-400.649" y2="23573.1" gradientUnits="userSpaceOnUse">
<stop stop-color="white" stop-opacity="0"/>
<stop offset="0.22218" stop-color="#BABABA"/>
<stop offset="0.54678" stop-color="white" stop-opacity="0"/>
<stop offset="1" stop-color="white" stop-opacity="0"/>
</linearGradient>
<linearGradient id="paint3_linear_2_5" x1="11642.8" y1="12.4582" x2="11642.8" y2="46202.8" gradientUnits="userSpaceOnUse">
<stop stop-color="#9CB6CD"/>
<stop offset="0.42056" stop-color="#9AB3CA"/>
<stop offset="0.71659" stop-color="#557496"/>
<stop offset="1" stop-color="#475178"/>
</linearGradient>
<clipPath id="clip0_2_5">
<rect width="262" height="500" fill="white"/>
</clipPath>
</defs>
</svg>
